<svg viewBox="0 0 576 404" fill="none" xmlns="http://www.w3.org/2000/svg" preserveAspectRatio="xMinYMin meet">
<path d="M507.488 375.718C507.446 375.551 503.387 358.868 511.677 345.011C519.968 331.156 537.665 325.045 537.843 324.985L538.652 324.711L538.843 325.471C538.885 325.637 542.945 342.321 534.654 356.177C526.364 370.033 508.666 376.144 508.488 376.204L507.679 376.477L507.488 375.718ZM537.543 326.565C533.998 327.939 520.007 333.954 513.005 345.656C506.002 357.36 508.115 371.201 508.788 374.623C512.332 373.252 526.317 367.247 533.326 355.532C540.329 343.829 538.217 329.99 537.543 326.565Z" fill="#3F3D56"/>
<path d="M528.318 351.317C513.419 359.395 507.681 375.44 507.681 375.44C507.681 375.44 526.099 378.389 540.998 370.31C555.897 362.232 561.635 346.187 561.635 346.187C561.635 346.187 543.217 343.239 528.318 351.317Z" fill="#D0CDE1"/>
<path d="M204.613 302.709C202.841 302.709 201.052 302.684 199.295 302.634L199.335 301.485C201.857 301.555 204.432 301.575 206.966 301.544L206.984 302.695C206.195 302.704 205.405 302.709 204.613 302.709ZM214.668 302.442L214.593 301.293C217.119 301.159 219.678 300.97 222.198 300.733L222.331 301.877C219.792 302.117 217.214 302.307 214.668 302.442ZM191.618 302.263C189.07 302.087 186.496 301.857 183.966 301.577L184.122 300.435C186.632 300.712 189.187 300.941 191.715 301.115L191.618 302.263ZM229.957 300.997L229.766 299.86C232.276 299.516 234.805 299.118 237.282 298.674L237.531 299.803C235.035 300.25 232.487 300.652 229.957 300.997ZM176.358 300.576C173.842 300.192 171.301 299.75 168.808 299.262L169.079 298.137C171.553 298.622 174.074 299.06 176.571 299.441L176.358 300.576ZM245.036 298.296L244.73 297.179C247.194 296.63 249.671 296.023 252.094 295.376L252.457 296.479C250.015 297.132 247.519 297.743 245.036 298.296ZM161.334 297.637C158.865 297.045 156.381 296.394 153.95 295.701L154.335 294.604C156.747 295.291 159.212 295.937 161.662 296.524L161.334 297.637ZM259.776 294.355L259.357 293.269C261.748 292.519 264.153 291.71 266.506 290.861L266.98 291.93C264.609 292.785 262.186 293.601 259.776 294.355ZM146.654 293.454C144.257 292.66 141.844 291.803 139.485 290.907L139.98 289.846C142.322 290.735 144.716 291.585 147.095 292.374L146.654 293.454ZM274.035 289.214L273.506 288.166C275.802 287.226 278.111 286.222 280.366 285.183L280.947 286.208C278.674 287.255 276.349 288.266 274.035 289.214ZM287.7 282.919L287.067 281.919C289.269 280.787 291.468 279.597 293.6 278.381L294.282 279.353C292.134 280.579 289.919 281.778 287.7 282.919ZM300.678 275.519L299.947 274.576C302.021 273.271 304.09 271.903 306.097 270.513L306.875 271.426C304.853 272.827 302.768 274.204 300.678 275.519ZM106.022 273.899C103.961 272.549 101.901 271.136 99.9011 269.696L100.698 268.797C102.683 270.225 104.727 271.628 106.772 272.967L106.022 273.899ZM312.86 267.081L312.037 266.201C313.97 264.732 315.893 263.2 317.754 261.649L318.621 262.494C316.746 264.057 314.808 265.601 312.86 267.081ZM94.0005 265.248C92.0807 263.733 90.1733 262.157 88.3318 260.564L89.2161 259.733C91.0439 261.315 92.9366 262.879 94.8417 264.383L94.0005 265.248ZM324.146 257.674L323.236 256.866C325.018 255.239 326.78 253.555 328.474 251.862L329.423 252.632C327.717 254.339 325.941 256.035 324.146 257.674ZM82.907 255.653C81.1456 253.984 79.406 252.259 77.7366 250.525L78.7013 249.771C80.358 251.491 82.0841 253.203 83.8324 254.86L82.907 255.653ZM334.44 247.378L333.453 246.647C335.063 244.882 336.647 243.06 338.165 241.232L339.187 241.921C337.659 243.763 336.062 245.599 334.44 247.378ZM72.8316 245.192C71.2498 243.391 69.6923 241.532 68.2022 239.665L69.2386 238.993C70.7175 240.845 72.2631 242.69 73.833 244.479L72.8316 245.192ZM343.654 236.274L342.597 235.628C344.022 233.738 345.417 231.793 346.743 229.845L347.832 230.448C346.494 232.41 345.089 234.37 343.654 236.274ZM63.8587 233.955C62.4671 232.033 61.1051 230.054 59.8102 228.074L60.9102 227.489C62.1955 229.455 63.5472 231.418 64.9282 233.326L63.8587 233.955ZM351.709 224.453L350.592 223.897C351.818 221.897 353.009 219.844 354.133 217.793L355.278 218.303C354.146 220.369 352.945 222.439 351.709 224.453H351.709ZM358.53 212.011L357.36 211.549C358.378 209.454 359.355 207.309 360.265 205.173L361.457 205.586C360.54 207.738 359.555 209.9 358.53 212.011H358.53ZM49.519 209.527C48.5399 207.409 47.6023 205.243 46.7323 203.087L47.9328 202.694C48.7959 204.833 49.7263 206.983 50.6976 209.084L49.519 209.527ZM364.053 199.044L362.84 198.682C363.637 196.518 364.389 194.306 365.075 192.107L366.305 192.418C365.614 194.634 364.855 196.863 364.053 199.044ZM44.2722 196.522C43.5123 194.328 42.7983 192.088 42.15 189.861L43.3854 189.569C44.0287 191.778 44.7374 194.002 45.4914 196.179L44.2722 196.522ZM368.215 185.705L366.971 185.445C367.543 183.226 368.066 180.961 368.525 178.712L369.781 178.92C369.318 181.187 368.792 183.469 368.215 185.705ZM40.3715 183.119C39.8389 180.871 39.3569 178.581 38.9391 176.311L40.1988 176.122C40.6138 178.375 41.0921 180.648 41.6206 182.879L40.3715 183.119ZM370.998 172.079L369.733 171.923C370.076 169.669 370.366 167.37 370.595 165.091L371.867 165.194C371.636 167.491 371.344 169.807 370.998 172.079ZM37.8546 169.451C37.5534 167.173 37.3061 164.852 37.1193 162.554L38.3934 162.47C38.5783 164.751 38.824 167.054 39.123 169.315L37.8546 169.451ZM372.387 158.281L371.111 158.23C371.225 155.949 371.283 153.636 371.283 151.355H372.56C372.56 153.653 372.502 155.984 372.387 158.281ZM36.7324 155.633C36.6887 154.222 36.6666 152.782 36.6663 151.355C36.6663 150.469 36.6747 149.585 36.6915 148.702L37.9687 148.723C37.9518 149.598 37.9434 150.476 37.9434 151.355C37.9437 152.771 37.9659 154.201 38.0089 155.602L36.7324 155.633ZM38.2718 141.851L36.9971 141.779C37.1564 139.48 37.3766 137.157 37.6506 134.876L38.9203 134.999C38.6481 137.264 38.4302 139.569 38.2718 141.851H38.2718ZM370.458 134.829C370.203 132.56 369.852 131.454 369.482 129.195L370.745 129.027C371.118 131.303 371.438 133.041 371.696 135.327L370.458 134.829ZM39.9147 128.182L38.6525 128.006C39.0438 125.729 39.4984 123.434 40.0038 121.184L41.2555 121.412C40.7541 123.645 40.3029 125.922 39.9147 128.182H39.9147ZM368.193 122.418C367.706 120.173 367.156 117.913 366.559 115.7L367.8 115.428C368.402 117.657 368.956 119.935 369.446 122.197L368.193 122.418ZM42.9398 114.705L41.701 114.426C42.3212 112.196 43.0081 109.949 43.7427 107.744L44.9656 108.075C44.237 110.263 43.5554 112.493 42.9398 114.705ZM364.583 109.058C363.871 106.866 363.093 104.662 362.27 102.505L363.478 102.131C364.307 104.304 365.092 106.526 365.809 108.734L364.583 109.058ZM47.3363 101.519L46.1315 101.137C46.9802 98.9614 47.8966 96.7752 48.8551 94.6393L50.0394 95.071C49.0881 97.1903 48.1785 99.3599 47.3363 101.519ZM359.624 96.0547C358.692 93.9365 357.694 91.8108 356.658 89.7361L357.823 89.2635C358.867 91.3541 359.873 93.4962 360.811 95.6304L359.624 96.0547ZM53.0686 88.7445L51.908 88.2639C52.9747 86.1705 54.11 84.0711 55.2824 82.0243L56.4174 82.552C55.2537 84.5834 54.1272 86.6667 53.0686 88.7445ZM353.373 83.5445C352.23 81.5126 351.019 79.4765 349.774 77.4934L350.885 76.9264C352.14 78.9249 353.36 80.9764 354.512 83.0241L353.373 83.5445ZM60.0783 76.5066L58.9714 75.9322C60.2455 73.9385 61.589 71.9428 62.965 70.0011L64.0414 70.6204C62.676 72.5475 61.3424 74.528 60.0783 76.5066ZM345.87 71.5946C344.52 69.6585 343.107 67.7297 341.67 65.8616L342.719 65.2058C344.167 67.0882 345.592 69.0316 346.951 70.9826L345.87 71.5946ZM68.2988 64.9054L67.2549 64.2422C68.7272 62.3603 70.2666 60.4846 71.8313 58.6671L72.8403 59.3724C71.2878 61.1765 69.7596 63.0378 68.2988 64.9054ZM337.182 60.3059C335.643 58.4893 334.041 56.6832 332.417 54.9382L333.396 54.1989C335.032 55.9574 336.647 57.7769 338.198 59.6073L337.182 60.3059ZM77.6562 54.0337L76.6839 53.2873C78.3362 51.5384 80.0583 49.7975 81.8022 48.1132L82.7358 48.8984C81.0053 50.57 79.2963 52.2979 77.6562 54.0337ZM327.386 49.7703C325.67 48.0874 323.891 46.4194 322.097 44.8131L322.998 43.9965C324.805 45.6154 326.598 47.2958 328.326 48.9914L327.386 49.7703ZM88.068 43.9785L87.175 43.1558C89.0013 41.5456 90.8911 39.9537 92.7916 38.4245L93.6422 39.2833C91.7561 40.8007 89.8806 42.3805 88.068 43.9786V43.9785ZM316.564 40.0768C314.684 38.54 312.742 37.0243 310.794 35.5718L311.609 34.685C313.571 36.1485 315.527 37.6757 317.422 39.2243L316.564 40.0768ZM99.4465 34.8215L98.6401 33.9291C100.615 32.4794 102.657 31.0497 104.708 29.6795L105.469 30.604C103.433 31.964 101.407 33.3828 99.4465 34.8215H99.4465ZM111.696 26.6396L110.983 25.6848C113.097 24.4028 115.273 23.1476 117.452 21.953L118.116 22.9366C115.954 24.1218 113.794 25.3678 111.696 26.6396H111.696ZM124.715 19.5027L124.102 18.4928C126.339 17.3899 128.632 16.3198 130.918 15.3118L131.479 16.3459C129.211 17.346 126.935 18.4079 124.715 19.5027ZM278.849 16.836C276.577 15.8157 274.249 14.8299 271.93 13.9063L272.447 12.8536C274.783 13.7843 277.13 14.7777 279.419 15.8058L278.849 16.836ZM138.395 13.4727L137.887 12.4167C140.224 11.5037 142.615 10.6281 144.993 9.81402L145.446 10.8903C143.087 11.6979 140.714 12.5667 138.395 13.4727ZM264.867 11.266C262.502 10.4396 260.082 9.65105 257.673 8.92269L258.079 7.83128C260.506 8.56554 262.945 9.35993 265.328 10.1931L264.867 11.266ZM152.641 8.59758L152.243 7.50391C154.67 6.7868 157.146 6.11155 159.603 5.49755L159.944 6.60639C157.506 7.21589 155.049 7.88582 152.64 8.59758H152.641ZM250.384 6.88627C247.948 6.26048 245.464 5.67768 243 5.15417L243.293 4.0341C245.776 4.56154 248.279 5.14883 250.734 5.77912L250.384 6.88627ZM167.342 4.92066L167.058 3.79862C169.546 3.28635 172.08 2.8196 174.591 2.41159L174.818 3.54403C172.326 3.94924 169.811 4.41233 167.342 4.92066ZM235.534 3.73118C233.047 3.31049 230.514 2.93622 228.005 2.61869L228.182 1.47894C230.711 1.79901 233.264 2.17611 235.77 2.59986L235.534 3.73118ZM182.356 2.47875L182.187 1.33788C184.715 1.03384 187.287 0.778126 189.829 0.578614L189.94 1.7251C187.417 1.92349 184.866 2.17693 182.356 2.47875ZM220.426 1.8184C217.91 1.60483 215.35 1.44016 212.815 1.32973L212.877 0.179872C215.431 0.291431 218.011 0.457221 220.546 0.672495L220.426 1.8184ZM197.556 1.28365L197.502 0.133814C199.849 0.0455792 202.242 0.000625018 204.613 6.10352e-05L205.191 0.000899651L205.188 1.15188L204.613 1.15105C202.26 1.15158 199.885 1.19625 197.556 1.28365Z" fill="#3F3D56"/>
<path d="M576 375.39H107.92V376.54H576V375.39Z" fill="#3F3D56"/>
<path d="M381.878 181.87L388.264 271.072C388.264 271.072 403.59 306.177 402.951 339.555C402.951 339.555 397.204 352.792 401.674 355.094C406.144 357.396 408.699 359.122 406.144 360.848C403.59 362.575 401.674 366.603 403.59 367.754C405.506 368.905 406.144 370.632 405.506 370.632H386.348C386.348 370.632 390.18 361.999 384.433 359.697C378.685 357.396 381.878 351.641 381.878 351.641L339.093 238.844L305.249 342.433C305.249 342.433 310.996 345.886 306.526 347.612C302.056 349.339 300.14 345.886 302.056 349.339C303.971 352.792 301.417 354.518 301.417 355.094C301.417 355.669 282.26 353.367 282.26 353.367C282.26 353.367 291.838 345.886 287.368 344.159C282.898 342.433 280.982 340.706 282.26 339.555C283.537 338.404 288.645 327.47 288.645 327.47C288.645 327.47 291.2 286.034 291.838 284.308C292.477 282.581 291.838 274.525 291.838 270.496C291.838 266.468 291.2 250.354 293.115 246.325C295.031 242.297 296.947 192.805 307.164 187.05C317.382 181.295 381.878 181.87 381.878 181.87Z" fill="#2F2E41"/>
<path d="M300.779 352.216C300.779 352.216 313.55 375.811 304.61 378.689C295.67 381.566 284.175 379.264 281.621 382.717C279.067 386.17 250.969 390.199 250.331 381.566C249.692 372.934 280.983 356.82 280.983 356.82L285.059 350.905L300.779 352.216Z" fill="#2F2E41"/>
<path d="M404.229 369.481C404.229 369.481 417 393.076 408.06 395.953C399.12 398.831 387.626 396.529 385.071 399.982C382.517 403.435 354.419 407.463 353.781 398.831C353.142 390.198 384.433 374.085 384.433 374.085L388.509 368.17L404.229 369.481Z" fill="#2F2E41"/>
<path d="M345.16 73.3896C356.798 73.3896 366.233 64.8869 366.233 54.3984C366.233 43.9098 356.798 35.4071 345.16 35.4071C333.522 35.4071 324.087 43.9098 324.087 54.3984C324.087 64.8869 333.522 73.3896 345.16 73.3896Z" fill="#A0616A"/>
<path d="M359.528 64.4693L356.974 81.1586L337.817 94.3949L332.708 88.0645V66.1958L359.528 64.4693Z" fill="#A0616A"/>
<path d="M329.515 85.7627C329.515 85.7627 349.311 87.4892 359.528 81.1588L379.962 189.927C379.962 189.927 307.803 195.106 304.61 191.653V157.699L317.382 102.452L329.515 85.7627Z" fill="#3F3D56"/>
<path d="M357.77 75.9585L364.637 81.1588C364.637 81.1588 392.734 85.1872 390.818 92.0931L383.156 173.813L385.71 201.437C385.71 201.437 363.998 196.257 347.395 201.437C330.792 206.616 343.983 90.1345 343.983 90.1345C343.983 90.1345 359.204 77.6641 357.77 75.9585Z" fill="#D0CDE1"/>
<path d="M332.708 82.2578C332.708 82.2578 312.273 95.5462 309.719 104.179C307.164 112.811 298.863 203.739 298.863 203.739C298.863 203.739 302.694 202.012 304.61 204.89C306.526 207.767 335.9 86.8096 332.708 82.2578Z" fill="#D0CDE1"/>
<path d="M324.097 53.571C324.097 53.571 321.816 50.4871 322.693 47.166C323.217 45.2804 323.424 43.3346 323.307 41.3936C323.307 41.3936 325.15 36.0166 326.992 33.0118C328.835 30.007 327.957 28.7418 333.749 27.7929C339.54 26.844 337.17 20.0437 352.438 27.3975C352.953 28.0457 353.669 28.5418 354.497 28.8232C355.325 29.1047 356.226 29.1589 357.088 28.979C360.247 28.4255 361.387 32.3792 361.387 32.3792C361.387 32.3792 363.493 31.2721 364.283 32.8536C365.073 34.4351 370.703 31.9045 370.703 42.5794C370.703 53.2544 364.296 62.7899 364.296 62.7899C364.296 62.7899 364.765 44.8333 354.324 43.0146C343.883 41.1959 332.652 35.898 329.932 42.6983C328.463 46.5151 326.505 50.164 324.097 53.571Z" fill="#2F2E41"/>
<path d="M364.525 57.8408C365.662 57.8408 366.584 56.7328 366.584 55.366C366.584 53.9993 365.662 52.8913 364.525 52.8913C363.387 52.8913 362.465 53.9993 362.465 55.366C362.465 56.7328 363.387 57.8408 364.525 57.8408Z" fill="#A0616A"/>
<path d="M277.975 233.333C272.922 230.595 266.829 230.804 264.513 231.013C265.395 232.954 268.042 237.904 273.095 240.644C278.16 243.389 284.245 243.174 286.557 242.966C285.676 241.026 283.029 236.074 277.975 233.333Z" fill="#D0CDE1"/>
<path d="M301.719 287.674H270.138C268.253 287.674 266.446 288.348 265.113 289.549C263.78 290.75 263.032 292.379 263.032 294.078C263.032 295.776 263.78 297.405 265.113 298.606C266.446 299.807 268.253 300.481 270.138 300.481H301.719C303.603 300.48 305.408 299.804 306.74 298.604C308.071 297.403 308.819 295.775 308.819 294.078C308.819 292.38 308.071 290.752 306.74 289.551C305.408 288.351 303.603 287.675 301.719 287.674Z" fill="#D0CDE1"/>
<path d="M444.732 220.077H267.663C265.604 220.077 263.564 220.443 261.661 221.153C259.758 221.863 258.029 222.905 256.572 224.217C255.116 225.53 253.96 227.088 253.172 228.803C252.384 230.518 251.978 232.356 251.978 234.213V311.961C251.978 315.71 253.631 319.305 256.572 321.956C259.514 324.607 263.503 326.096 267.663 326.096H444.732C446.792 326.096 448.831 325.731 450.734 325.02C452.637 324.31 454.367 323.269 455.823 321.956C457.28 320.644 458.435 319.085 459.223 317.37C460.011 315.655 460.417 313.817 460.417 311.961V234.213C460.417 232.356 460.011 230.518 459.223 228.803C458.435 227.088 457.28 225.53 455.823 224.217C454.367 222.905 452.637 221.863 450.734 221.153C448.831 220.443 446.792 220.077 444.732 220.077ZM263.282 229.72C263.632 229.663 271.923 228.391 278.789 232.114C285.654 235.837 288.292 243.035 288.401 243.339L288.678 244.115L287.787 244.258C286.516 244.436 285.231 244.521 283.945 244.512C280.827 244.512 276.309 244.047 272.28 241.862C265.415 238.141 262.778 230.943 262.669 230.638L262.391 229.862L263.282 229.72ZM301.719 301.904H270.138C267.834 301.904 265.625 301.079 263.997 299.612C262.368 298.144 261.453 296.153 261.453 294.077C261.453 292.001 262.368 290.01 263.997 288.543C265.625 287.075 267.834 286.25 270.138 286.25H301.719C304.023 286.25 306.232 287.075 307.861 288.543C309.489 290.01 310.404 292.001 310.404 294.077C310.404 296.153 309.489 298.144 307.861 299.612C306.232 301.079 304.023 301.904 301.719 301.904ZM445.416 300.481C445.408 302.743 444.408 304.911 442.633 306.511C440.857 308.111 438.452 309.013 435.941 309.019H412.255C409.745 309.013 407.339 308.111 405.564 306.511C403.788 304.911 402.788 302.743 402.781 300.481V287.673C402.788 285.411 403.788 283.243 405.564 281.643C407.339 280.043 409.745 279.141 412.255 279.135H435.941C438.452 279.141 440.857 280.043 442.633 281.643C444.408 283.243 445.408 285.411 445.416 287.673L445.416 300.481Z" fill="#D0CDE1"/>
<path d="M419.756 297.991H409.492C408.759 297.991 408.056 298.253 407.538 298.72C407.02 299.188 406.728 299.821 406.728 300.481C406.728 301.142 407.02 301.775 407.538 302.242C408.056 302.709 408.759 302.972 409.492 302.972H419.756C420.489 302.972 421.192 302.709 421.71 302.242C422.228 301.775 422.519 301.142 422.519 300.481C422.519 299.821 422.228 299.188 421.71 298.72C421.192 298.253 420.489 297.991 419.756 297.991ZM419.756 301.549H409.492C409.336 301.549 409.182 301.522 409.038 301.468C408.894 301.415 408.763 301.336 408.653 301.237C408.542 301.138 408.455 301.02 408.395 300.89C408.335 300.761 408.305 300.622 408.305 300.481C408.305 300.341 408.335 300.202 408.395 300.072C408.455 299.943 408.542 299.825 408.653 299.726C408.763 299.627 408.894 299.548 409.038 299.495C409.182 299.441 409.336 299.414 409.492 299.414H419.756C419.912 299.414 420.066 299.441 420.21 299.495C420.354 299.548 420.485 299.627 420.595 299.726C420.705 299.825 420.793 299.943 420.852 300.072C420.912 300.202 420.943 300.341 420.943 300.481C420.943 300.622 420.912 300.761 420.852 300.89C420.793 301.02 420.705 301.138 420.595 301.237C420.485 301.336 420.354 301.415 420.21 301.468C420.066 301.522 419.912 301.549 419.756 301.549Z" fill="#D0CDE1"/>
<path d="M438.705 297.991H428.441C428.077 297.991 427.718 298.055 427.382 298.18C427.046 298.304 426.741 298.488 426.484 298.719C426.227 298.95 426.023 299.225 425.884 299.528C425.745 299.83 425.673 300.154 425.673 300.481C425.673 300.809 425.745 301.133 425.884 301.435C426.023 301.738 426.227 302.012 426.484 302.244C426.741 302.475 427.046 302.658 427.382 302.783C427.718 302.908 428.077 302.972 428.441 302.972H438.705C439.438 302.972 440.14 302.709 440.659 302.242C441.177 301.775 441.468 301.142 441.468 300.481C441.468 299.821 441.177 299.188 440.659 298.72C440.14 298.253 439.438 297.991 438.705 297.991ZM438.705 301.549H428.441C428.285 301.549 428.131 301.522 427.987 301.468C427.843 301.415 427.712 301.336 427.601 301.237C427.491 301.138 427.404 301.02 427.344 300.89C427.284 300.761 427.254 300.622 427.254 300.481C427.254 300.341 427.284 300.202 427.344 300.072C427.404 299.943 427.491 299.825 427.601 299.726C427.712 299.627 427.843 299.548 427.987 299.495C428.131 299.441 428.285 299.414 428.441 299.414H438.705C439.018 299.415 439.319 299.528 439.54 299.728C439.762 299.928 439.886 300.199 439.886 300.481C439.886 300.764 439.762 301.035 439.54 301.235C439.319 301.435 439.018 301.548 438.705 301.549Z" fill="#D0CDE1"/>
<path d="M419.756 291.587H409.492C408.759 291.587 408.056 291.849 407.538 292.316C407.02 292.783 406.728 293.417 406.728 294.077C406.728 294.738 407.02 295.371 407.538 295.838C408.056 296.305 408.759 296.568 409.492 296.568H419.756C420.119 296.568 420.479 296.504 420.815 296.379C421.15 296.254 421.455 296.071 421.713 295.84C421.97 295.608 422.173 295.334 422.313 295.031C422.452 294.729 422.523 294.405 422.523 294.077C422.523 293.75 422.452 293.426 422.313 293.123C422.173 292.821 421.97 292.546 421.713 292.315C421.455 292.084 421.15 291.9 420.815 291.775C420.479 291.65 420.119 291.586 419.756 291.587ZM419.756 295.145H409.492C409.178 295.145 408.876 295.032 408.654 294.832C408.432 294.632 408.307 294.36 408.307 294.077C408.307 293.794 408.432 293.523 408.654 293.322C408.876 293.122 409.178 293.01 409.492 293.01H419.756C420.07 293.01 420.371 293.122 420.593 293.322C420.815 293.523 420.94 293.794 420.94 294.077C420.94 294.36 420.815 294.632 420.593 294.832C420.371 295.032 420.07 295.145 419.756 295.145Z" fill="#D0CDE1"/>
<path d="M438.705 291.587H428.441C428.077 291.586 427.718 291.65 427.382 291.775C427.046 291.9 426.741 292.084 426.484 292.315C426.227 292.546 426.023 292.821 425.884 293.123C425.745 293.426 425.673 293.75 425.673 294.077C425.673 294.405 425.745 294.729 425.884 295.031C426.023 295.334 426.227 295.608 426.484 295.84C426.741 296.071 427.046 296.254 427.382 296.379C427.718 296.504 428.077 296.568 428.441 296.568H438.705C439.438 296.568 440.14 296.305 440.659 295.838C441.177 295.371 441.468 294.738 441.468 294.077C441.468 293.417 441.177 292.783 440.659 292.316C440.14 291.849 439.438 291.587 438.705 291.587ZM438.705 295.145H428.441C428.127 295.145 427.825 295.032 427.603 294.832C427.381 294.632 427.256 294.36 427.256 294.077C427.256 293.794 427.381 293.523 427.603 293.322C427.825 293.122 428.127 293.01 428.441 293.01H438.705C439.019 293.01 439.32 293.122 439.542 293.322C439.764 293.523 439.889 293.794 439.889 294.077C439.889 294.36 439.764 294.632 439.542 294.832C439.32 295.032 439.019 295.145 438.705 295.145Z" fill="#D0CDE1"/>
<path d="M419.756 285.183H409.492C408.759 285.183 408.056 285.446 407.538 285.913C407.02 286.38 406.728 287.013 406.728 287.674C406.728 288.334 407.02 288.968 407.538 289.435C408.056 289.902 408.759 290.164 409.492 290.164H419.756C420.489 290.164 421.192 289.902 421.71 289.435C422.228 288.968 422.519 288.334 422.519 287.674C422.519 287.013 422.228 286.38 421.71 285.913C421.192 285.446 420.489 285.183 419.756 285.183ZM419.756 288.741H409.492C409.178 288.741 408.876 288.629 408.654 288.428C408.432 288.228 408.307 287.957 408.307 287.674C408.307 287.391 408.432 287.119 408.654 286.919C408.876 286.719 409.178 286.606 409.492 286.606H419.756C420.07 286.606 420.371 286.719 420.593 286.919C420.815 287.119 420.94 287.391 420.94 287.674C420.94 287.957 420.815 288.228 420.593 288.428C420.371 288.629 420.07 288.741 419.756 288.741Z" fill="#D0CDE1"/>
<path d="M438.705 285.183H428.441C428.077 285.183 427.718 285.247 427.382 285.372C427.046 285.497 426.741 285.68 426.484 285.911C426.227 286.143 426.023 286.417 425.884 286.72C425.745 287.022 425.673 287.346 425.673 287.674C425.673 288.001 425.745 288.325 425.884 288.628C426.023 288.93 426.227 289.205 426.484 289.436C426.741 289.667 427.046 289.851 427.382 289.976C427.718 290.101 428.077 290.165 428.441 290.164H438.705C439.437 290.163 440.139 289.9 440.656 289.433C441.173 288.966 441.464 288.334 441.464 287.674C441.464 287.014 441.173 286.381 440.656 285.914C440.139 285.447 439.437 285.184 438.705 285.183ZM438.705 288.741H428.441C428.127 288.741 427.825 288.629 427.603 288.428C427.381 288.228 427.256 287.957 427.256 287.674C427.256 287.391 427.381 287.119 427.603 286.919C427.825 286.719 428.127 286.606 428.441 286.606H438.705C439.019 286.606 439.32 286.719 439.542 286.919C439.764 287.119 439.889 287.391 439.889 287.674C439.889 287.957 439.764 288.228 439.542 288.428C439.32 288.629 439.019 288.741 438.705 288.741Z" fill="#D0CDE1"/>
<path d="M388.903 202.588L384.325 216.049C384.325 216.049 383.156 241.146 367.83 237.693C352.504 234.24 372.3 204.89 372.3 204.89L376.77 198.559L388.903 202.588Z" fill="#A0616A"/>
<path d="M302.056 202.588L297.478 216.049C297.478 216.049 296.309 241.146 280.983 237.693C265.657 234.24 285.453 204.89 285.453 204.89L289.923 198.559L302.056 202.588Z" fill="#A0616A"/>
<path d="M385.71 88.0647C385.71 88.0647 395.927 85.7628 399.12 101.301C402.313 116.839 406.144 161.152 406.144 161.152L390.818 207.767C390.818 207.767 375.492 200.286 372.3 201.437L384.36 160.968L374.215 119.717C374.215 119.717 383.155 88.0647 385.71 88.0647Z" fill="#D0CDE1"/>
<path opacity="0.15" d="M370.854 120.504L384.264 160.789L370.854 201.649L378.517 160.789L370.854 120.504Z" fill="black"/>
<path d="M309.719 119.717L286.73 201.437C286.73 201.437 298.856 205.043 303.326 207.921L309.719 119.717Z" fill="#D0CDE1"/>
<path d="M68.5594 325.087C103.827 325.087 132.418 299.321 132.418 267.537C132.418 235.754 103.827 209.988 68.5594 209.988C33.2915 209.988 4.70129 235.754 4.70129 267.537C4.70129 299.321 33.2915 325.087 68.5594 325.087Z" fill="#3F3D56"/>
<path opacity="0.1" d="M68.5595 317.03C98.8899 317.03 123.478 294.871 123.478 267.537C123.478 240.203 98.8899 218.045 68.5595 218.045C38.2292 218.045 13.6415 240.203 13.6415 267.537C13.6415 294.871 38.2292 317.03 68.5595 317.03Z" fill="black"/>
<path d="M65.928 296.742V289.539C61.8875 289.468 57.7075 288.184 55.2694 286.401L56.9412 281.622C59.8386 283.579 63.3524 284.653 66.973 284.689C71.9193 284.689 75.2632 281.765 75.2632 277.699C75.2632 273.777 72.5462 271.352 67.391 269.212C60.2851 266.359 55.8963 263.078 55.8963 256.874C55.8963 250.954 60.0066 246.46 66.4158 245.391V238.187H70.7349V245.105C73.9556 245.145 77.0971 246.011 79.7915 247.602L78.0496 252.309C75.4655 250.715 72.4034 249.869 69.272 249.884C63.908 249.884 61.8875 253.165 61.8875 256.018C61.8875 259.726 64.4651 261.581 70.5261 264.148C77.7013 267.144 81.3241 270.853 81.3241 277.2C81.3241 282.834 77.4925 288.113 70.3169 289.324V296.742H65.928Z" fill="#6C63FF"/>
<path d="M136.018 384.597C90.9279 390.657 45.0899 390.657 0 384.597V370.786C45.1378 376.233 90.88 376.233 136.018 370.786V384.597Z" fill="#3F3D56"/>
<path d="M136.018 363.304C90.9279 369.364 45.0899 369.364 0 363.304V349.492C45.1378 354.94 90.88 354.94 136.018 349.492V363.304Z" fill="#3F3D56"/>
<path d="M136.018 342.011C90.9279 348.071 45.0899 348.071 0 342.011V328.199C45.1378 333.647 90.88 333.647 136.018 328.199V342.011Z" fill="#3F3D56"/>
</svg>
