<svg width="284" height="253" viewBox="0 0 284 253" fill="none" xmlns="http://www.w3.org/2000/svg">
<g clip-path="url(#clip0)">
<path d="M279.752 253H58.6539C57.6604 252.999 56.7079 252.63 56.0053 251.974C55.3028 251.317 54.9076 250.428 54.9065 249.5V122.339C54.9076 121.411 55.3028 120.521 56.0053 119.865C56.7079 119.209 57.6604 118.84 58.6539 118.839H279.752C280.746 118.84 281.698 119.209 282.401 119.865C283.103 120.521 283.499 121.411 283.5 122.339V249.5C283.499 250.428 283.103 251.317 282.401 251.974C281.698 252.63 280.746 252.999 279.752 253ZM58.6539 119.616C57.8812 119.617 57.1403 119.904 56.5939 120.415C56.0475 120.925 55.7402 121.617 55.7393 122.339V249.5C55.7402 250.222 56.0475 250.913 56.5939 251.424C57.1403 251.934 57.8812 252.221 58.6539 252.222H279.752C280.525 252.221 281.266 251.934 281.812 251.424C282.359 250.913 282.666 250.222 282.667 249.5V122.339C282.666 121.617 282.359 120.925 281.812 120.415C281.266 119.904 280.525 119.617 279.752 119.616H58.6539Z" fill="#3F3D56"/>
<path d="M254.215 227.996H236.727C236.451 227.996 236.186 227.894 235.991 227.711C235.796 227.529 235.686 227.282 235.686 227.024V218.469C235.686 218.211 235.796 217.964 235.991 217.782C236.186 217.6 236.451 217.497 236.727 217.497H249.323C249.488 217.497 249.647 217.558 249.764 217.668C249.881 217.777 249.947 217.926 249.947 218.08C249.947 218.235 249.881 218.383 249.764 218.493C249.647 218.602 249.488 218.664 249.323 218.664H237.56C237.394 218.664 237.235 218.725 237.118 218.835C237.001 218.944 236.935 219.092 236.935 219.247V226.247C236.935 226.401 237.001 226.549 237.118 226.659C237.235 226.768 237.394 226.83 237.56 226.83H253.382C253.548 226.83 253.707 226.768 253.824 226.659C253.941 226.549 254.007 226.401 254.007 226.247V222.539C254.007 222.384 254.073 222.236 254.19 222.126C254.307 222.017 254.466 221.955 254.631 221.955C254.797 221.955 254.956 222.017 255.073 222.126C255.19 222.236 255.256 222.384 255.256 222.539V227.024C255.256 227.282 255.146 227.529 254.951 227.711C254.756 227.894 254.491 227.996 254.215 227.996Z" fill="#3F3D56"/>
<path d="M223.333 142.171H88.8419C88.3449 142.171 87.8683 141.987 87.5169 141.659C87.1656 141.331 86.9681 140.886 86.9681 140.422C86.9681 139.957 87.1656 139.512 87.5169 139.184C87.8683 138.856 88.3449 138.672 88.8419 138.672H223.333C223.83 138.672 224.307 138.856 224.658 139.184C225.009 139.512 225.207 139.957 225.207 140.422C225.207 140.886 225.009 141.331 224.658 141.659C224.307 141.987 223.83 142.171 223.333 142.171Z" fill="#CCCCCC"/>
<path d="M223.333 156.56H88.8419C88.3449 156.56 87.8683 156.376 87.5169 156.048C87.1656 155.719 86.9681 155.274 86.9681 154.81C86.9681 154.346 87.1656 153.901 87.5169 153.573C87.8683 153.245 88.3449 153.06 88.8419 153.06H223.333C223.83 153.06 224.307 153.245 224.658 153.573C225.009 153.901 225.207 154.346 225.207 154.81C225.207 155.274 225.009 155.719 224.658 156.048C224.307 156.376 223.83 156.56 223.333 156.56Z" fill="#CCCCCC"/>
<path d="M223.333 170.947H88.8419C88.3449 170.947 87.8683 170.763 87.5169 170.435C87.1656 170.106 86.9681 169.661 86.9681 169.197C86.9681 168.733 87.1656 168.288 87.5169 167.96C87.8683 167.632 88.3449 167.447 88.8419 167.447H223.333C223.83 167.447 224.307 167.632 224.658 167.96C225.009 168.288 225.207 168.733 225.207 169.197C225.207 169.661 225.009 170.106 224.658 170.435C224.307 170.763 223.83 170.947 223.333 170.947Z" fill="#CCCCCC"/>
<path d="M223.333 185.336H88.8419C88.3449 185.336 87.8683 185.152 87.5169 184.823C87.1656 184.495 86.9681 184.05 86.9681 183.586C86.9681 183.122 87.1656 182.677 87.5169 182.349C87.8683 182.02 88.3449 181.836 88.8419 181.836H223.333C223.83 181.836 224.307 182.02 224.658 182.349C225.009 182.677 225.207 183.122 225.207 183.586C225.207 184.05 225.009 184.495 224.658 184.823C224.307 185.152 223.83 185.336 223.333 185.336Z" fill="#CCCCCC"/>
<path d="M223.333 199.725H88.8419C88.3449 199.725 87.8683 199.54 87.5169 199.212C87.1656 198.884 86.9681 198.439 86.9681 197.975C86.9681 197.51 87.1656 197.065 87.5169 196.737C87.8683 196.409 88.3449 196.225 88.8419 196.225H223.333C223.83 196.225 224.307 196.409 224.658 196.737C225.009 197.065 225.207 197.51 225.207 197.975C225.207 198.439 225.009 198.884 224.658 199.212C224.307 199.54 223.83 199.725 223.333 199.725Z" fill="#CCCCCC"/>
<path d="M245.817 145.476C248.807 145.476 251.23 143.213 251.23 140.421C251.23 137.629 248.807 135.366 245.817 135.366C242.828 135.366 240.404 137.629 240.404 140.421C240.404 143.213 242.828 145.476 245.817 145.476Z" fill="#6C63FF"/>
<path d="M245.817 159.865C248.807 159.865 251.23 157.602 251.23 154.81C251.23 152.018 248.807 149.754 245.817 149.754C242.828 149.754 240.404 152.018 240.404 154.81C240.404 157.602 242.828 159.865 245.817 159.865Z" fill="#FF6584"/>
<path d="M245.817 174.254C248.807 174.254 251.23 171.99 251.23 169.198C251.23 166.406 248.807 164.143 245.817 164.143C242.828 164.143 240.404 166.406 240.404 169.198C240.404 171.99 242.828 174.254 245.817 174.254Z" fill="#6C63FF"/>
<path d="M245.817 188.642C248.807 188.642 251.23 186.379 251.23 183.587C251.23 180.795 248.807 178.531 245.817 178.531C242.828 178.531 240.404 180.795 240.404 183.587C240.404 186.379 242.828 188.642 245.817 188.642Z" fill="#F2F2F2"/>
<path d="M245.817 203.029C248.807 203.029 251.23 200.766 251.23 197.974C251.23 195.182 248.807 192.919 245.817 192.919C242.828 192.919 240.404 195.182 240.404 197.974C240.404 200.766 242.828 203.029 245.817 203.029Z" fill="#F2F2F2"/>
<path d="M245.679 225.257C245.525 225.258 245.373 225.23 245.232 225.175C245.09 225.12 244.961 225.04 244.853 224.938L241.16 221.489C241.043 221.38 240.977 221.232 240.977 221.077C240.977 220.922 241.043 220.774 241.16 220.665C241.279 220.558 241.437 220.499 241.601 220.499C241.766 220.499 241.924 220.558 242.043 220.665L245.532 223.923C245.571 223.958 245.624 223.978 245.679 223.978C245.734 223.978 245.786 223.958 245.826 223.923L257.435 213.081C257.554 212.975 257.712 212.916 257.876 212.916C258.041 212.916 258.199 212.975 258.318 213.081C258.435 213.191 258.501 213.339 258.5 213.494C258.5 213.649 258.435 213.797 258.318 213.906L246.505 224.938C246.397 225.04 246.268 225.12 246.126 225.175C245.984 225.23 245.832 225.258 245.679 225.257Z" fill="#6C63FF"/>
<path opacity="0.1" d="M245.679 234.996C261.546 234.996 274.409 234.3 274.409 233.44C274.409 232.581 261.546 231.885 245.679 231.885C229.812 231.885 216.949 232.581 216.949 233.44C216.949 234.3 229.812 234.996 245.679 234.996Z" fill="black"/>
<path d="M33.7076 95.6313H2.3656C1.87097 95.6308 1.39675 95.4471 1.047 95.1204C0.697241 94.7938 0.50052 94.3509 0.5 93.889V78.5564C0.50052 78.0944 0.697241 77.6515 1.047 77.3249C1.39675 76.9982 1.87097 76.8145 2.3656 76.814H24.9393C25.0865 76.8138 25.2322 76.8406 25.3683 76.893C25.5044 76.9454 25.628 77.0224 25.7322 77.1195C25.8364 77.2166 25.919 77.3319 25.9754 77.4589C26.0318 77.5859 26.0608 77.722 26.0608 77.8594C26.0608 77.9969 26.0318 78.133 25.9754 78.26C25.919 78.3869 25.8364 78.5023 25.7322 78.5994C25.628 78.6965 25.5044 78.7734 25.3683 78.8258C25.2322 78.8782 25.0865 78.9051 24.9393 78.9048H3.85805C3.56128 78.9051 3.27675 79.0154 3.0669 79.2114C2.85705 79.4073 2.73902 79.6731 2.7387 79.9502V92.4951C2.73902 92.7723 2.85705 93.038 3.0669 93.234C3.27675 93.43 3.56128 93.5402 3.85805 93.5405H32.2151C32.5119 93.5402 32.7964 93.43 33.0062 93.234C33.2161 93.038 33.3341 92.7723 33.3344 92.4951V85.8497C33.3344 85.5724 33.4524 85.3065 33.6623 85.1105C33.8722 84.9144 34.1569 84.8043 34.4538 84.8043C34.7507 84.8043 35.0354 84.9144 35.2453 85.1105C35.4552 85.3065 35.5732 85.5724 35.5732 85.8497V93.889C35.5726 94.3509 35.3759 94.7938 35.0262 95.1204C34.6764 95.4471 34.2022 95.6308 33.7076 95.6313Z" fill="#3F3D56"/>
<path d="M18.4095 90.7228C18.1346 90.7233 17.8623 90.6731 17.6082 90.575C17.3542 90.4768 17.1234 90.3328 16.9291 90.1511L10.3102 83.9699C10.1005 83.7738 9.98267 83.508 9.98267 83.2308C9.98267 82.9536 10.1005 82.6877 10.3102 82.4916C10.5236 82.3016 10.807 82.1956 11.1018 82.1956C11.3966 82.1956 11.6801 82.3016 11.8934 82.4916L18.1457 88.3312C18.2166 88.3948 18.3111 88.4302 18.4094 88.4302C18.5076 88.4302 18.6021 88.3948 18.673 88.3312L39.478 68.9014C39.6912 68.7113 39.9747 68.6053 40.2694 68.6053C40.5642 68.6053 40.8476 68.7113 41.0608 68.9014C41.2706 69.0975 41.3885 69.3634 41.3884 69.6406C41.3883 69.9178 41.2704 70.1836 41.0605 70.3796L19.8903 90.1511C19.696 90.3328 19.4651 90.4768 19.211 90.5749C18.9569 90.673 18.6845 90.7233 18.4095 90.7228Z" fill="#6C63FF"/>
<path d="M59.9543 120.798H97.845C98.7648 120.798 99.5105 120.102 99.5105 119.243V111.076C99.5105 110.217 98.7648 109.521 97.845 109.521H59.9543C59.0344 109.521 58.2888 110.217 58.2888 111.076V119.243C58.2888 120.102 59.0344 120.798 59.9543 120.798Z" fill="#2F2E41"/>
<path d="M97.0125 109.132H39.5519C39.2238 109.132 38.8989 109.193 38.5958 109.31C38.2927 109.427 38.0173 109.599 37.7853 109.816C37.5533 110.032 37.3693 110.289 37.2437 110.573C37.1182 110.856 37.0536 111.159 37.0536 111.465V148.408C37.0536 149.027 37.3168 149.621 37.7853 150.058C38.2538 150.496 38.8893 150.742 39.5519 150.742H46.6304C47.2929 150.742 47.9284 150.496 48.3969 150.058C48.8654 149.621 49.1286 149.027 49.1286 148.408V120.409H58.289V148.797C58.289 149.416 58.5522 150.009 59.0208 150.447C59.4893 150.885 60.1247 151.13 60.7873 151.13H67.8658C68.5284 151.13 69.1638 150.885 69.6323 150.447C70.1008 150.009 70.3641 149.416 70.3641 148.797V120.409H97.0125C97.675 120.409 98.3105 120.164 98.779 119.726C99.2475 119.289 99.5107 118.695 99.5108 118.076V111.465C99.5108 111.159 99.4461 110.856 99.3206 110.573C99.195 110.289 99.011 110.032 98.779 109.816C98.547 109.599 98.2716 109.427 97.9685 109.31C97.6654 109.193 97.3405 109.132 97.0125 109.132Z" fill="#2F2E41"/>
<path d="M111.435 121.017L56.8261 119.943C56.4553 119.936 56.0909 119.852 55.7593 119.696C55.4277 119.541 55.1372 119.319 54.9091 119.046C54.6809 118.773 54.5207 118.456 54.4401 118.118C54.3595 117.779 54.3606 117.429 54.4432 117.091L67.7392 62.7265C67.8652 62.2113 68.1747 61.7513 68.6172 61.4218C69.0597 61.0923 69.6088 60.9128 70.1747 60.9128H84.4735C89.1741 60.9128 93.7315 62.424 97.3798 65.1923C101.028 67.9607 103.545 71.8175 104.507 76.1146L113.933 118.207C114.01 118.55 114.003 118.906 113.913 119.246C113.822 119.587 113.65 119.904 113.41 120.175C113.17 120.445 112.868 120.661 112.526 120.807C112.184 120.952 111.811 121.024 111.435 121.017Z" fill="#2F2E41"/>
<path d="M77.6175 56.0647C89.9248 56.0647 99.9019 46.7468 99.9019 35.2525C99.9019 23.7583 89.9248 14.4404 77.6175 14.4404C65.3102 14.4404 55.3331 23.7583 55.3331 35.2525C55.3331 46.7468 65.3102 56.0647 77.6175 56.0647Z" fill="#6C63FF"/>
<path d="M67.5072 24.0479C64.9062 23.4749 62.098 22.7041 60.2429 20.7915C58.6636 19.1634 57.9229 16.6508 59.3223 14.7206C60.6002 12.9581 63.1208 12.3114 65.2423 11.9809C67.7082 11.5967 70.2424 11.5406 72.5564 10.5605C73.6924 10.0805 74.6839 9.3459 75.4426 8.42183C76.147 7.49812 76.7584 6.5155 77.2689 5.48657C77.7526 4.48376 78.399 3.55658 79.1852 2.73767C80.0791 1.92003 81.2322 1.39426 82.4723 1.2388C85.2639 0.842539 87.9142 2.04743 90.1108 3.54371C92.2379 5.02117 94.1677 6.73144 95.8589 8.63791C99.6992 12.9121 102.343 18.0101 103.552 23.4742C103.714 24.209 104.919 23.898 104.756 23.164C103.6 17.9931 101.198 13.136 97.7327 8.96105C96.0164 6.87938 94.045 4.9926 91.8587 3.33927C89.5952 1.63632 86.9818 0.152178 84.0047 0.0115428C82.628 -0.0633548 81.2537 0.19151 80.0121 0.751955C78.8712 1.31363 77.9109 2.14886 77.23 3.17185C75.8273 5.15872 75.1506 7.72619 72.8875 9.07018C70.5953 10.4315 67.7252 10.4449 65.1248 10.8237C62.812 11.1606 60.2371 11.8722 58.6713 13.6069C56.9394 15.5257 57.0046 18.1405 58.2982 20.2567C59.7355 22.608 62.406 23.8913 65.0878 24.6563C65.7765 24.8527 66.4744 25.0185 67.1751 25.1728C67.9569 25.3451 68.2905 24.2205 67.5072 24.0479V24.0479Z" fill="#2F2E41"/>
<path d="M80.0249 42.2021C78.6478 42.166 76.9343 42.1212 75.6152 41.2212C75.2222 40.9421 74.8993 40.586 74.6692 40.1781C74.439 39.7701 74.3072 39.3201 74.2829 38.8595C74.2591 38.5323 74.3167 38.2043 74.451 37.9013C74.5854 37.5982 74.793 37.3283 75.0576 37.1126C75.7466 36.5684 76.7532 36.4404 77.8383 36.7389L76.7144 29.0678L77.5394 28.9622L78.8607 37.9803L78.1717 37.6853C77.3725 37.3427 76.2764 37.1692 75.5951 37.7065C75.4278 37.847 75.2975 38.0217 75.2142 38.2169C75.1309 38.4122 75.097 38.6227 75.1151 38.8321C75.1353 39.1749 75.2343 39.5096 75.4053 39.8135C75.5764 40.1174 75.8155 40.3832 76.1064 40.5931C77.133 41.2933 78.4988 41.3841 80.0481 41.4244L80.0249 42.2021Z" fill="#2F2E41"/>
<path d="M72.6343 29.7286H68.1493V30.5063H72.6343V29.7286Z" fill="#2F2E41"/>
<path d="M86.7911 29.7286H82.3061V30.5063H86.7911V29.7286Z" fill="#2F2E41"/>
<path d="M34.9922 100.668C34.4724 100.668 33.9634 100.529 33.526 100.267C33.0886 100.004 32.7412 99.6302 32.5252 99.1886L29.9773 93.9654C29.83 93.6633 29.7478 93.3371 29.7355 93.0054C29.7231 92.6737 29.7808 92.3429 29.9054 92.032C30.0299 91.7211 30.2188 91.4362 30.4612 91.1935C30.7037 90.9508 30.9949 90.755 31.3184 90.6174L77.9301 70.7854C78.5834 70.5083 79.3278 70.4846 79.9998 70.7194C80.6719 70.9542 81.2168 71.4283 81.5151 72.0378L84.063 77.261C84.3596 77.8712 84.3851 78.5663 84.1337 79.194C83.8824 79.8217 83.3747 80.3307 82.7221 80.6093L36.1102 100.441C35.7593 100.591 35.378 100.668 34.9922 100.668Z" fill="#6C63FF"/>
</g>
<defs>
<clipPath id="clip0">
<rect width="283" height="253" fill="white" transform="translate(0.5)"/>
</clipPath>
</defs>
</svg>
