<svg width="283" height="253" viewBox="0 0 283 253" fill="none" xmlns="http://www.w3.org/2000/svg">
<path d="M136.703 242.117L9.54421 152.977C5.49731 150.283 2.02348 145.852 5.97133 142.957L133.583 55.68C135.5 54.2702 138.408 53.347 140.354 54.6898L273.803 146.641C277.849 149.427 278.578 157.215 274.51 160.009L153.464 241.974C150.922 243.723 148.039 244.657 145.099 244.682C142.16 244.707 139.266 243.823 136.703 242.117Z" fill="#A2C609"/>
<path style="mix-blend-mode:multiply" opacity="0.91" d="M110.363 178.589L155.982 213.819L185.089 191.362L137.552 166.077" fill="url(#paint0_linear)"/>
<path style="mix-blend-mode:multiply" opacity="0.91" d="M130.52 209.723C130.293 209.723 113.32 203.513 113.094 203.539L103.111 212.434L146.092 243.652L163.631 229.495L130.52 209.723Z" fill="url(#paint1_linear)"/>
<path style="mix-blend-mode:multiply" opacity="0.91" d="M34.3422 146.171L76.6083 178.002L94.1472 163.844L48.004 135.689" fill="url(#paint2_linear)"/>
<path d="M142.915 135.815L151.731 198.755C151.782 199.125 151.955 199.455 152.212 199.673C152.469 199.891 152.788 199.979 153.1 199.917C153.411 199.856 153.689 199.651 153.873 199.346C154.057 199.042 154.131 198.663 154.079 198.294L145.264 135.354C145.212 134.984 145.039 134.654 144.782 134.436C144.526 134.218 144.206 134.13 143.895 134.191C143.583 134.253 143.305 134.458 143.121 134.763C142.938 135.067 142.863 135.446 142.915 135.815Z" fill="#C24327"/>
<path d="M129.848 119.14L110.37 178.589C110.256 178.939 110.263 179.328 110.39 179.671C110.518 180.014 110.755 180.283 111.049 180.419C111.344 180.554 111.672 180.546 111.961 180.395C112.25 180.244 112.477 179.962 112.592 179.613L132.076 120.164C132.191 119.814 132.183 119.423 132.055 119.08C131.927 118.736 131.689 118.466 131.393 118.33C131.098 118.195 130.769 118.204 130.479 118.356C130.189 118.507 129.962 118.79 129.848 119.14Z" fill="#C24327"/>
<path d="M134.241 102.356L135.168 166.136C135.173 166.511 135.304 166.868 135.532 167.128C135.76 167.389 136.065 167.531 136.381 167.524C136.697 167.518 136.998 167.362 137.218 167.092C137.438 166.823 137.558 166.46 137.552 166.085L136.625 102.306C136.62 101.931 136.489 101.574 136.261 101.314C136.034 101.053 135.728 100.91 135.412 100.917C135.096 100.924 134.795 101.079 134.575 101.349C134.356 101.619 134.235 101.981 134.241 102.356Z" fill="#C24327"/>
<path d="M136.13 140.456C148.145 140.456 157.886 135.218 157.886 128.757C157.886 122.297 148.145 117.059 136.13 117.059C124.115 117.059 114.374 122.297 114.374 128.757C114.374 135.218 124.115 140.456 136.13 140.456Z" fill="#13897E"/>
<path d="M139.88 103.531V33.2063C139.883 32.4224 140.059 31.6531 140.392 30.9755C140.724 30.298 141.201 29.736 141.774 29.3459C142.347 28.9557 142.997 28.7512 143.658 28.7527C144.319 28.7542 144.968 28.9617 145.54 29.3544L220.634 81.8043C221.199 82.1998 221.666 82.7631 221.992 83.4386C222.317 84.1141 222.488 84.8785 222.488 85.6563V156.904C222.487 157.696 222.31 158.473 221.974 159.156C221.638 159.84 221.155 160.405 220.575 160.795C219.994 161.185 219.337 161.385 218.67 161.375C218.003 161.366 217.35 161.146 216.778 160.739L141.712 107.358C141.155 106.962 140.693 106.401 140.372 105.73C140.051 105.06 139.881 104.302 139.88 103.531Z" fill="#B095FE"/>
<path d="M143.304 77.7593C143.247 77.902 142.95 79.2279 142.717 78.951C142.483 78.6741 141.245 79.3035 141.245 79.3035L137.793 74.092L138.252 72.4136H141.365" fill="#68E1FD"/>
<path d="M126.643 55.3024L126.317 53.9513L122.681 51.6015V44.2585C122.681 44.1158 126.218 46.709 126.218 46.709L126.381 46.2978C126.578 45.1747 126.94 44.1011 127.449 43.1256L124.838 37.5449L128.058 34.5909L130.484 40.3646C131.369 40.1231 132.289 40.1432 133.166 40.4234V34.893L137.814 37.9477V43.7466C138.726 44.7731 139.558 45.8968 140.297 47.1034L143.127 44.9802L146.29 52.1218L143.778 54.4884L143.99 55.6884C144.315 56.9553 144.575 58.2445 144.769 59.5487L148.497 61.9824V69.2918L144.96 66.7742C144.806 68.107 144.416 69.3857 143.814 70.5255L146.474 75.8795L143.099 78.9091L140.729 73.3955H137.786V78.9091L133.35 75.7033V70.324C132.332 69.1399 131.435 67.8191 130.675 66.3882L128.058 68.5953L124.838 61.3026L127.513 58.9613L127.251 57.8703C126.982 56.9724 126.777 56.1332 126.643 55.3024Z" fill="#68E1FD"/>
<path d="M118.188 47.3133L122.298 44.3677L123.324 46.1636L121.732 50.1162" fill="#68E1FD"/>
<path d="M123.565 71.6164L126.607 70.1142V67.9323" fill="#68E1FD"/>
<path d="M133.343 82.0058L137.807 78.9511L136.675 74.9397L132.656 76.3412L133.343 82.0058Z" fill="#68E1FD"/>
<path d="M128.093 34.5909L123.622 37.6456L126.077 43.4361L128.758 43.4948L129.374 37.6456L128.093 34.5909Z" fill="#68E1FD"/>
<path d="M132.101 63.7085C133.138 63.2254 133.41 61.1203 132.71 59.0066C132.01 56.8928 130.602 55.5709 129.566 56.0539C128.529 56.537 128.256 58.6421 128.957 60.7558C129.657 62.8696 131.065 64.1915 132.101 63.7085Z" fill="#68E1FD"/>
<path d="M137.871 37.9478L133.406 41.0024L128.758 37.9478L133.222 34.8931L137.871 37.9478Z" fill="#68E1FD"/>
<path d="M138.691 48.0685L143.155 45.0138L146.318 52.1554L141.854 55.21L138.691 48.0685Z" fill="#68E1FD"/>
<path d="M146.495 75.9216L142.031 78.9847L138.656 82.0058L143.127 78.9511L146.495 75.9216Z" fill="#68E1FD"/>
<path opacity="0.44" d="M143.304 77.7593C143.247 77.902 142.95 79.2279 142.717 78.951C142.483 78.6741 141.245 79.3035 141.245 79.3035L137.793 74.092L138.252 72.4136H141.365" fill="#053855"/>
<path d="M126.643 55.3024L126.317 53.9513L122.681 51.6015V44.2585C122.681 44.1158 126.218 46.709 126.218 46.709L126.381 46.2978C126.578 45.1747 126.94 44.1011 127.449 43.1256L124.838 37.5449L128.058 34.5909L130.484 40.3646C131.369 40.1231 132.289 40.1432 133.166 40.4234V34.893L137.814 37.9477V43.7466C138.726 44.7731 139.558 45.8968 140.297 47.1034L143.127 44.9802L146.29 52.1218L143.778 54.4884L143.99 55.6884C144.315 56.9553 144.575 58.2445 144.769 59.5487L148.497 61.9824V69.2918L144.96 66.7742C144.806 68.107 144.416 69.3857 143.814 70.5255L146.474 75.8795L143.099 78.9091L140.729 73.3955H137.786V78.9091L133.35 75.7033V70.324C132.332 69.1399 131.435 67.8191 130.675 66.3882L128.058 68.5953L124.838 61.3026L127.513 58.9613L127.251 57.8703C126.982 56.9724 126.777 56.1332 126.643 55.3024Z" fill="#68E1FD"/>
<path opacity="0.44" d="M118.188 47.3133L122.298 44.3677L123.324 46.1636L121.732 50.1162" fill="#053855"/>
<path d="M123.565 71.6164L126.607 70.1142V67.9323" fill="#68E1FD"/>
<path d="M133.343 82.0058L137.807 78.9511L136.675 74.9397L132.656 76.3412L133.343 82.0058Z" fill="#68E1FD"/>
<path d="M128.093 34.5909L123.622 37.6456L126.077 43.4361L128.758 43.4948L129.374 37.6456L128.093 34.5909Z" fill="#68E1FD"/>
<path d="M132.101 63.7085C133.138 63.2254 133.41 61.1203 132.71 59.0066C132.01 56.8928 130.602 55.5709 129.566 56.0539C128.529 56.537 128.256 58.6421 128.957 60.7558C129.657 62.8696 131.065 64.1915 132.101 63.7085Z" fill="#68E1FD"/>
<path d="M138.691 48.0685L143.155 45.0138L146.318 52.1554L141.854 55.21L138.691 48.0685Z" fill="#68E1FD"/>
<path d="M146.495 75.9216L142.031 78.9847L138.656 82.0058L143.127 78.9511L146.495 75.9216Z" fill="#68E1FD"/>
<path opacity="0.44" d="M126.643 55.3024L126.317 53.9513L122.681 51.6015V44.2585C122.681 44.1158 126.218 46.709 126.218 46.709L126.381 46.2978C126.578 45.1747 126.94 44.1011 127.449 43.1256L124.838 37.5449L128.058 34.5909L130.484 40.3646C131.369 40.1231 132.289 40.1432 133.166 40.4234V34.893L137.814 37.9477V43.7466C138.726 44.7731 139.558 45.8968 140.297 47.1034L143.127 44.9802L146.29 52.1218L143.778 54.4884L143.99 55.6884C144.315 56.9553 144.575 58.2445 144.769 59.5487L148.497 61.9824V69.2918L144.96 66.7742C144.806 68.107 144.416 69.3857 143.814 70.5255L146.474 75.8795L143.099 78.9091L140.729 73.3955H137.786V78.9091L133.35 75.7033V70.324C132.332 69.1399 131.435 67.8191 130.675 66.3882L128.058 68.5953L124.838 61.3026L127.513 58.9613L127.251 57.8703C126.982 56.9724 126.777 56.1332 126.643 55.3024Z" fill="#053855"/>
<path opacity="0.1" d="M123.565 71.6164L126.607 70.1142V67.9323" fill="#053855"/>
<path opacity="0.1" d="M133.343 82.0058L137.807 78.9511L136.675 74.9397L132.656 76.3412L133.343 82.0058Z" fill="#053855"/>
<path opacity="0.1" d="M132.101 63.7085C133.138 63.2254 133.41 61.1203 132.71 59.0066C132.01 56.8928 130.602 55.5709 129.566 56.0539C128.529 56.537 128.256 58.6421 128.957 60.7558C129.657 62.8696 131.065 64.1915 132.101 63.7085Z" fill="#053855"/>
<path opacity="0.1" d="M138.691 48.0685L143.155 45.0138L146.318 52.1554L141.854 55.21L138.691 48.0685Z" fill="#053855"/>
<path opacity="0.1" d="M146.495 75.9216L142.031 78.9847L138.656 82.0058L143.127 78.9511L146.495 75.9216Z" fill="#053855"/>
<path opacity="0.1" d="M123.565 71.6164L126.607 70.1142V67.9323" fill="#053855"/>
<path opacity="0.44" d="M133.343 82.0058L137.807 78.9511L136.675 74.9397L132.656 76.3412L133.343 82.0058Z" fill="#053855"/>
<path d="M122.143 58.3571L121.817 57.006L118.153 54.6562V47.3132C118.153 47.1706 121.69 49.7637 121.69 49.7637L121.853 49.3525C122.05 48.2294 122.412 47.1559 122.921 46.1803L120.36 40.5745L123.607 37.6457L126.055 43.4194C126.94 43.1778 127.861 43.198 128.737 43.4781V37.9478L133.385 41.0025V46.7762C134.298 47.8027 135.129 48.9263 135.868 50.133L138.698 48.0098L141.861 55.1514L139.378 57.5767L139.59 58.7767C139.915 60.0436 140.175 61.3328 140.368 62.637L144.097 65.0707V72.3801L140.559 69.8625C140.397 71.2043 139.994 72.4892 139.378 73.6305L142.038 78.9846L138.67 82.0225L136.3 76.509H133.357V82.0225L128.921 78.8168V73.3788C127.898 72.193 126.996 70.8692 126.232 69.4345L123.565 71.5997L120.346 64.3154L123.02 61.9741L122.758 60.8831C122.518 60.0271 122.313 59.1879 122.143 58.3571Z" fill="#68E1FD"/>
<path opacity="0.44" d="M132.101 63.7085C133.138 63.2254 133.41 61.1203 132.71 59.0066C132.01 56.8928 130.602 55.5709 129.566 56.0539C128.529 56.537 128.256 58.6421 128.957 60.7558C129.657 62.8696 131.065 64.1915 132.101 63.7085Z" fill="#053855"/>
<path opacity="0.44" d="M146.495 75.9216L142.031 78.9847L138.656 82.0058L143.127 78.9511L146.495 75.9216Z" fill="#053855"/>
<path d="M137.871 37.9478L133.406 41.0024L128.758 37.9478L133.222 34.8931L137.871 37.9478Z" fill="#68E1FD"/>
<path opacity="0.44" d="M137.871 37.931L133.413 41.0024L128.758 37.9645L133.215 34.8931L137.871 37.931Z" fill="#053855"/>
<path d="M148.533 62.016L144.061 65.0707V72.3885L148.533 69.3338V62.016Z" fill="#68E1FD"/>
<path opacity="0.44" d="M148.533 62.016L144.061 65.0707V72.3885L148.533 69.3338V62.016Z" fill="#053855"/>
<path d="M185.974 99.7967V45.0977C185.974 44.563 186.093 44.0379 186.32 43.5755C186.546 43.1131 186.871 42.7297 187.262 42.4641C187.653 42.1984 188.097 42.06 188.548 42.0627C188.998 42.0653 189.44 42.2091 189.829 42.4794L248.439 83.4491C249.372 84.0997 250.145 85.0281 250.682 86.1424C251.22 87.2567 251.502 88.5182 251.502 89.8018V145.013C251.501 145.55 251.381 146.077 251.152 146.541C250.924 147.004 250.596 147.388 250.202 147.652C249.808 147.917 249.362 148.052 248.909 148.046C248.457 148.039 248.013 147.89 247.625 147.614L188.86 105.839C187.98 105.213 187.252 104.328 186.746 103.269C186.24 102.21 185.974 101.014 185.974 99.7967Z" fill="#68E1FD"/>
<path d="M136.13 137.435C148.145 137.435 157.886 132.197 157.886 125.736C157.886 119.276 148.145 114.038 136.13 114.038C124.115 114.038 114.374 119.276 114.374 125.736C114.374 132.197 124.115 137.435 136.13 137.435Z" fill="#16A79E"/>
<path d="M116.723 121.809V122.573L117.049 123.042" fill="#ADCEE1"/>
<path d="M129.586 112.569L117.091 121.75C116.975 121.831 116.879 121.946 116.812 122.085C116.746 122.223 116.71 122.38 116.71 122.539C116.71 122.698 116.746 122.855 116.812 122.994C116.879 123.132 116.975 123.247 117.091 123.328L136.052 136.05C136.316 136.231 136.615 136.326 136.919 136.326C137.223 136.326 137.522 136.231 137.786 136.05L150.259 127.339C151.164 126.5 151.094 124.822 150.259 124.729L131.404 112.502C131.124 112.316 130.807 112.224 130.487 112.236C130.166 112.248 129.855 112.363 129.586 112.569Z" fill="#88D3D8"/>
<path d="M129.586 111.932L117.091 121.121C116.975 121.202 116.879 121.317 116.812 121.455C116.746 121.594 116.71 121.75 116.71 121.91C116.71 122.069 116.746 122.226 116.812 122.364C116.879 122.503 116.975 122.618 117.091 122.698L136.052 135.421C136.316 135.601 136.615 135.696 136.919 135.696C137.223 135.696 137.522 135.601 137.786 135.421L150.223 126.743C150.37 126.644 150.493 126.499 150.578 126.325C150.662 126.152 150.707 125.954 150.707 125.753C150.707 125.552 150.662 125.355 150.578 125.181C150.493 125.007 150.37 124.863 150.223 124.763L131.397 111.898C131.121 111.709 130.806 111.612 130.487 111.618C130.168 111.623 129.857 111.732 129.586 111.932Z" fill="white"/>
<path d="M130.102 110.681C130.102 110.681 135.288 90.8173 135.26 90.8173C135.232 90.8173 135.423 89.9361 136.35 90.4313L156.266 104.337C156.266 104.337 157.228 104.798 157.044 105.864C156.86 106.93 151.971 125.308 151.971 125.308C151.869 125.483 151.723 125.615 151.554 125.684C151.385 125.753 151.201 125.757 151.03 125.694C150.422 125.468 130.569 111.789 130.569 111.789C130.387 111.709 130.238 111.55 130.151 111.344C130.065 111.139 130.047 110.902 130.102 110.681Z" fill="#053855"/>
<path d="M135.585 92.2524L155.983 106.359L151.752 123.202L131.093 109.523L135.585 92.2524Z" fill="#68E1FD"/>
<path d="M128.822 114.038L124.251 117.395C124.169 117.453 124.101 117.535 124.054 117.634C124.007 117.732 123.982 117.844 123.982 117.957C123.982 118.07 124.007 118.182 124.054 118.28C124.101 118.379 124.169 118.461 124.251 118.519L140.651 129.605C140.896 129.773 141.174 129.861 141.457 129.861C141.741 129.861 142.019 129.773 142.264 129.605C143.318 128.875 145.136 127.566 146.247 126.752C146.339 126.674 146.414 126.572 146.466 126.453C146.518 126.334 146.545 126.202 146.545 126.068C146.545 125.934 146.518 125.802 146.466 125.683C146.414 125.564 146.339 125.461 146.247 125.384L129.741 114.004C129.6 113.91 129.44 113.864 129.277 113.87C129.115 113.875 128.958 113.934 128.822 114.038Z" fill="#68E1FD"/>
<path d="M129.069 123.202L134.8 127.02C134.887 127.08 134.958 127.166 135.008 127.269C135.058 127.372 135.085 127.489 135.085 127.608C135.085 127.727 135.058 127.844 135.008 127.947C134.958 128.05 134.887 128.135 134.8 128.195L131.432 130.537C131.316 130.616 131.184 130.658 131.05 130.658C130.916 130.658 130.784 130.616 130.668 130.537L124.803 126.576C124.729 126.526 124.668 126.454 124.626 126.367C124.583 126.28 124.561 126.181 124.561 126.08C124.561 125.98 124.583 125.881 124.626 125.794C124.668 125.707 124.729 125.635 124.803 125.585L128.34 123.194C128.453 123.123 128.578 123.087 128.706 123.088C128.833 123.09 128.958 123.129 129.069 123.202Z" fill="#68E1FD"/>
<path opacity="0.1" d="M128.822 114.038L124.251 117.395C124.169 117.453 124.101 117.535 124.054 117.634C124.007 117.732 123.982 117.844 123.982 117.957C123.982 118.07 124.007 118.182 124.054 118.28C124.101 118.379 124.169 118.461 124.251 118.519L140.651 129.605C140.896 129.773 141.174 129.861 141.457 129.861C141.741 129.861 142.019 129.773 142.264 129.605C143.318 128.875 145.136 127.566 146.247 126.752C146.339 126.674 146.414 126.572 146.466 126.453C146.518 126.334 146.545 126.202 146.545 126.068C146.545 125.934 146.518 125.802 146.466 125.683C146.414 125.564 146.339 125.461 146.247 125.384L129.741 114.004C129.6 113.91 129.44 113.864 129.277 113.87C129.115 113.875 128.958 113.934 128.822 114.038Z" fill="#053855"/>
<path opacity="0.1" d="M129.069 123.202L134.8 127.02C134.887 127.08 134.958 127.166 135.008 127.269C135.058 127.372 135.085 127.489 135.085 127.608C135.085 127.727 135.058 127.844 135.008 127.947C134.958 128.05 134.887 128.135 134.8 128.195L131.432 130.537C131.316 130.616 131.184 130.658 131.05 130.658C130.916 130.658 130.784 130.616 130.668 130.537L124.803 126.576C124.729 126.526 124.668 126.454 124.626 126.367C124.583 126.28 124.561 126.181 124.561 126.08C124.561 125.98 124.583 125.881 124.626 125.794C124.668 125.707 124.729 125.635 124.803 125.585L128.34 123.194C128.453 123.123 128.578 123.087 128.706 123.088C128.833 123.09 128.958 123.129 129.069 123.202Z" fill="#053855"/>
<path d="M101.774 133.138C101.774 133.138 103.988 136.965 104.349 136.176C104.71 135.387 105.538 129.462 105.538 129.462L100.628 127.255" fill="#EEAD97"/>
<path d="M121.775 208.742C121.786 208.955 121.865 209.156 121.997 209.303C122.128 209.449 122.302 209.531 122.482 209.531C123.19 209.598 129.494 206.358 131.043 210.747C131.134 211.019 131.142 211.319 131.066 211.596C130.989 211.874 130.834 212.111 130.626 212.266C127.476 214.669 123.913 216.206 120.197 216.764C118.927 217.074 117.606 216.877 116.44 216.202L116.737 207.902L121.775 208.742Z" fill="#C24327"/>
<path d="M106.45 204.932C106.45 204.932 112.379 200.341 113.419 203.253C114.219 205.502 107.13 212.048 104.519 212.552C101.908 213.055 101.554 209.816 101.554 209.816L101.639 204.487" fill="#C24327"/>
<path d="M118.061 138.131C118.061 138.131 124.004 153.312 123.898 208.137C123.898 208.137 122.688 211.922 114.106 209.321L110.625 160.353L109.118 205.527C109.118 205.527 105.085 209.077 98.8167 204.814C98.8167 204.814 100.232 144.392 103.649 133.482" fill="#68E1FD"/>
<path d="M103.366 135.362C101.88 127.901 98.8167 108.617 102.099 105.68C104.929 103.162 111.622 105.898 116.709 109.976C120.884 113.333 119.179 132.794 118.457 139.558C112.924 140.372 107.767 139.231 103.366 135.362Z" fill="#C24327"/>
<path d="M115.846 94.7868C115.846 94.7868 115.988 104.698 113.66 104.941C112.749 105.122 111.812 104.949 110.99 104.449C110.168 103.949 109.504 103.147 109.097 102.163" fill="#EEAD97"/>
<path d="M112.492 103.699V108.415C112.492 108.415 110.37 109.389 107.377 107.031V103.187" fill="#EEAD97"/>
<path d="M115.421 96.6162C115.421 96.6162 118.251 93.1167 116.405 90.1375C114.558 87.1584 112.492 88.7361 112.492 88.7361C112.492 88.7361 112.054 87.4437 109.868 87.1836C107.681 86.9234 106.811 89.5165 105.934 90.1627C105.057 90.8089 103.642 92.6803 103.528 94.2916C103.415 95.9028 105.389 104.681 107.681 105.327C109.974 105.973 112.91 106.989 115.421 96.6162Z" fill="#C24327"/>
<path d="M103.507 104.966C103.507 104.966 98.5549 104.866 93.7864 112.368C89.0178 119.87 101.406 134.943 101.526 134.187C101.647 133.432 103.507 126.727 103.507 126.727C103.507 126.727 98.088 121.205 99.0077 119.594C99.9275 117.982 103.507 117.202 103.507 117.202" fill="#C24327"/>
<path d="M135.529 120.366C135.529 120.366 140.163 119.526 140.757 118.536C141.352 117.546 141.04 114.97 140.701 114.265C140.361 113.56 138.543 114.751 138.543 114.751C138.543 114.751 138.543 114.055 137.75 114.072C136.958 114.088 135.578 115.691 135.578 115.691L130.725 119.048L131.107 124.436L135.529 120.366Z" fill="#EEAD97"/>
<path d="M117.657 111.193C117.657 111.193 122.85 120.903 122.942 121.196C123.034 121.49 130.661 117.21 130.661 117.21C130.661 117.21 132.741 117.865 134.234 122.556C134.234 122.556 127.732 133.054 118.344 130.948C113.865 129.924 111.651 120.802 111.651 120.802" fill="#C24327"/>
<path d="M56.3947 109.221C56.3271 108.875 56.1994 108.549 56.0197 108.264C55.6845 107.785 55.2854 107.374 54.8382 107.047C48.8457 102.239 40.5609 100.913 34.2287 105.612C32.8137 106.687 30.6346 109.12 31.4907 111.411C31.986 112.746 33.4929 113.518 34.533 114.063C37.929 115.834 41.7212 116.681 45.3648 117.42C46.709 117.688 48.0604 117.957 49.4188 118.108C50.3562 118.217 51.3015 118.043 52.1673 117.603C53.033 117.163 53.7911 116.471 54.3713 115.59C55.3052 114.181 56.8192 111.302 56.3947 109.221Z" fill="#754C24"/>
<path d="M31.3212 110.371C31.3212 110.371 36.7831 116.245 46.2211 115.406C55.6592 114.567 56.395 109.246 56.395 109.246C56.395 109.246 53.9541 146.347 52.6594 147.01C51.3646 147.673 46.5466 150.367 44.226 150.61C41.9054 150.854 34.5403 147.321 34.3563 146.356C34.1724 145.391 31.3212 110.371 31.3212 110.371Z" fill="#68E1FD"/>
<path d="M33.0473 56.301C32.7572 55.6045 31.8657 56.2171 32.1558 56.9137C38.6153 72.3549 39.8746 89.7431 41.0349 106.628C41.0845 107.4 42.1174 107.408 42.0679 106.628C40.8864 89.5166 39.6199 71.9521 33.0473 56.301Z" fill="#007F68"/>
<path d="M32.2195 56.4437C32.2195 56.4437 34.0236 64.458 32.1629 68.461C30.3021 72.464 28.7598 73.2696 30.9884 78.2713C33.217 83.2729 39.16 83.9191 39.5633 87.7374C39.9666 91.5558 36.705 63.2496 32.2195 56.4437Z" fill="#007F68"/>
<path d="M52.8716 70.9114C47.9112 83.2627 45.1236 96.6829 44.6788 110.354C44.6788 111.302 45.9028 111.302 45.9382 110.354C46.3718 96.9433 49.1015 83.7777 53.9612 71.6583C54.3008 70.8023 53.2183 70.0555 52.8716 70.9114Z" fill="#007F68"/>
<path d="M53.7701 74.8223C53.7701 73.9831 53.6215 72.4389 53.6922 71.0207C53.4564 71.2053 53.2206 71.3843 52.9847 71.5578C50.5297 78.6322 46.8719 95.2484 45.7682 100.342C47.2611 96.5324 53.3739 96.0121 55.1638 90.5321C55.9571 88.2234 55.9949 85.6466 55.27 83.3066C54.3831 80.5945 53.8765 77.7285 53.7701 74.8223Z" fill="#007F68"/>
<path d="M243.868 107.375C245.191 116.086 241.901 123.706 236.517 124.394C231.133 125.082 225.692 118.57 224.362 109.859C223.032 101.148 226.329 93.5279 231.713 92.8398C237.097 92.1516 242.545 98.6638 243.868 107.375Z" fill="#F4F4F4"/>
<path d="M237.458 114.5C237.455 115.248 237.295 115.983 236.991 116.64C236.858 116.921 236.678 117.169 236.463 117.368C236.248 117.566 236.002 117.713 235.739 117.798C235.194 117.928 234.628 117.879 234.105 117.655L234.041 119.963C234.041 120.634 233.673 120.802 233.334 120.592C233.165 120.472 233.027 120.299 232.937 120.091C232.847 119.883 232.808 119.65 232.824 119.417L232.888 117.034C232.02 116.458 231.289 115.629 230.765 114.625C230.158 113.472 229.83 112.142 229.817 110.782L231.94 111.755C231.959 112.339 232.082 112.911 232.301 113.434C232.447 113.791 232.652 114.11 232.902 114.374L233.022 109.825C232.45 109.305 231.904 108.744 231.388 108.147C230.945 107.576 230.591 106.917 230.341 106.2C230.042 105.322 229.911 104.376 229.959 103.431C229.951 102.654 230.13 101.891 230.475 101.232C230.777 100.703 231.242 100.335 231.77 100.208C232.28 100.114 232.801 100.166 233.291 100.359L233.376 97.4051C233.376 96.7337 233.751 96.5659 234.083 96.7757C234.252 96.8963 234.389 97.07 234.479 97.2775C234.569 97.4849 234.608 97.718 234.593 97.9506L234.515 100.955C235.332 101.49 236.017 102.268 236.503 103.212C237.068 104.308 237.381 105.562 237.409 106.846L235.23 105.856C235.198 105.338 235.08 104.833 234.883 104.37C234.766 104.107 234.616 103.866 234.437 103.657L234.317 108.071C234.892 108.621 235.44 109.209 235.958 109.834C236.405 110.407 236.764 111.069 237.02 111.789C237.33 112.644 237.479 113.569 237.458 114.5ZM234.869 114.902C235.012 114.729 235.123 114.523 235.194 114.296C235.266 114.069 235.298 113.827 235.286 113.585C235.305 113.04 235.19 112.5 234.954 112.032C234.765 111.681 234.541 111.357 234.289 111.067L234.175 115.095C234.298 115.126 234.425 115.124 234.547 115.091C234.669 115.057 234.784 114.993 234.883 114.902H234.869ZM232.527 105.772C232.728 106.142 232.966 106.483 233.235 106.787L233.341 102.893C233.221 102.859 233.096 102.854 232.975 102.879C232.853 102.903 232.737 102.957 232.633 103.036C232.495 103.191 232.387 103.381 232.319 103.591C232.25 103.802 232.222 104.028 232.237 104.253C232.216 104.784 232.324 105.311 232.548 105.772" fill="#8B54BA"/>
<path d="M196.841 61.0425V99.7715C196.841 103.011 201.086 103.019 201.086 99.7715V61.0425C201.086 57.8032 196.841 57.7948 196.841 61.0425Z" fill="white"/>
<path d="M203.463 73.211V104.53C203.463 107.769 207.708 107.778 207.708 104.53V73.211C207.708 69.9717 203.463 69.9633 203.463 73.211Z" fill="white"/>
<path d="M210.326 82.0813V109.716C210.326 112.955 214.571 112.964 214.571 109.716V82.0813C214.571 78.842 210.326 78.8336 210.326 82.0813Z" fill="white"/>
<path d="M196.841 67.6638V99.8051C196.841 103.044 201.086 103.053 201.086 99.8051V71.1129C199.656 70.0136 198.227 68.8723 196.841 67.6638Z" fill="#A2C609"/>
<path d="M203.463 78.3049V104.53C203.463 107.769 207.708 107.778 207.708 104.53V82.1064C206.224 80.9506 204.806 79.6807 203.463 78.3049Z" fill="#FF9F9F"/>
<path d="M210.326 91.2538V109.716C210.326 112.955 214.571 112.964 214.571 109.716V94.2833C213.205 93.1783 211.788 92.1668 210.326 91.2538Z" fill="#8B54BA"/>
<path d="M168.127 108.415C173.301 107.081 176.008 97.8887 174.173 87.8844C172.339 77.8801 166.658 70.8519 161.484 72.1865C156.311 73.5212 153.604 82.7132 155.438 92.7176C157.272 102.722 162.954 109.75 168.127 108.415Z" fill="white"/>
<path d="M164.805 91.4971L157.935 74.7886C157.935 74.7886 162.768 67.3029 169.765 76.6936L164.805 91.4971Z" fill="#8B54BA"/>
<path d="M164.805 91.4971L174.71 95.3742C174.71 95.3742 175.814 84.9681 169.758 76.702L164.805 91.4971Z" fill="#FF9F9F"/>
<path d="M175.311 124.99L181.028 120.76L185.69 127.608L193.876 123.026L201.836 134.246L212.448 131.426V150.619L175.311 124.99Z" fill="#8B54BA"/>
<path d="M150.768 44.7789L170.253 58.3907C170.433 58.4909 170.639 58.5076 170.829 58.4376C171.019 58.3676 171.18 58.216 171.281 58.0124C171.382 57.8087 171.415 57.5677 171.374 57.3366C171.333 57.1055 171.221 56.9008 171.06 56.7627L151.568 43.1509C151.388 43.0507 151.182 43.034 150.992 43.104C150.802 43.174 150.641 43.3256 150.54 43.5293C150.439 43.7329 150.406 43.9739 150.447 44.205C150.488 44.4361 150.6 44.6408 150.761 44.7789H150.768Z" fill="white"/>
<path d="M150.33 49.5288L169.8 63.1406C169.981 63.2407 170.186 63.2575 170.376 63.1875C170.566 63.1175 170.728 62.9658 170.828 62.7622C170.929 62.5585 170.963 62.3176 170.922 62.0864C170.881 61.8553 170.768 61.6506 170.607 61.5125L151.136 47.9007C150.956 47.8005 150.751 47.7838 150.56 47.8538C150.37 47.9238 150.209 48.0754 150.108 48.2791C150.007 48.4827 149.974 48.7237 150.015 48.9548C150.056 49.186 150.168 49.3906 150.33 49.5288Z" fill="white"/>
<path d="M150.33 54.3289L169.8 67.9575C169.98 68.0577 170.186 68.0744 170.376 68.0044C170.566 67.9344 170.727 67.7828 170.828 67.5791C170.929 67.3755 170.962 67.1345 170.921 66.9034C170.88 66.6723 170.768 66.4676 170.607 66.3295L151.136 52.7176C150.959 52.6336 150.763 52.6273 150.582 52.6999C150.402 52.7726 150.249 52.9194 150.152 53.1138C150.054 53.3083 150.019 53.5376 150.051 53.7604C150.084 53.9832 150.183 54.1848 150.33 54.3289Z" fill="white"/>
<path d="M216.672 111.143L194.98 95.9951C194.909 95.9448 194.845 95.9196 194.775 95.886V101.702L216.191 116.656C216.342 116.762 216.504 116.846 216.672 116.908V111.143Z" fill="#053855"/>
<defs>
<linearGradient id="paint0_linear" x1="161.933" y1="197.312" x2="107.675" y2="163.829" gradientUnits="userSpaceOnUse">
<stop stop-color="white" stop-opacity="0"/>
<stop offset="0.99" stop-color="#808080"/>
</linearGradient>
<linearGradient id="paint1_linear" x1="110815" y1="11506.4" x2="109342" y2="9646.1" gradientUnits="userSpaceOnUse">
<stop stop-color="white" stop-opacity="0"/>
<stop offset="0.99" stop-color="#808080"/>
</linearGradient>
<linearGradient id="paint2_linear" x1="103713" y1="8729.77" x2="102144" y2="6874.72" gradientUnits="userSpaceOnUse">
<stop stop-color="white" stop-opacity="0"/>
<stop offset="0.99" stop-color="#808080"/>
</linearGradient>
</defs>
</svg>
