<svg width="28" height="18" viewBox="0 0 28 18" fill="none" xmlns="http://www.w3.org/2000/svg">
<g clip-path="url(#clip0)">
<path d="M25.4025 14.1557H8.16233C6.81141 14.1557 5.71225 13.4491 5.71225 12.5807V10.5481C5.71225 10.3825 5.92106 10.248 6.17905 10.248C6.43703 10.248 6.64585 10.3825 6.64585 10.5481V12.5807C6.64585 13.1182 7.32613 13.5556 8.16233 13.5556H25.4025C26.2387 13.5556 26.919 13.118 26.919 12.5807V5.22459C26.919 4.68703 26.2384 4.24971 25.4025 4.24971H8.16233C7.32613 4.24971 6.64585 4.68703 6.64585 5.22459V7.23276C6.64585 7.39861 6.43703 7.53284 6.17905 7.53284C5.92106 7.53284 5.71225 7.39861 5.71225 7.23276V5.22459C5.71225 4.35614 6.81141 3.64954 8.16233 3.64954H25.4025C26.7534 3.64954 27.8526 4.35614 27.8526 5.22459V12.5807C27.8526 13.4491 26.7534 14.1557 25.4025 14.1557Z" fill="white"/>
<path d="M19.6783 8.90264L24.8834 5.83297C25.0732 5.72093 25.086 5.53108 24.912 5.40885C24.7378 5.28681 24.4427 5.27881 24.2526 5.39064L16.7826 9.7961L9.31314 5.39064C9.12299 5.27881 8.82798 5.28681 8.65339 5.40885C8.47912 5.53088 8.49188 5.72093 8.68171 5.83297L13.8868 8.90264L8.68171 11.9725C8.49188 12.0848 8.47912 12.2744 8.65339 12.3964C8.74551 12.4611 8.87123 12.4937 8.99758 12.4937C9.11023 12.4937 9.22351 12.4675 9.31314 12.4146L14.5774 9.30976L16.467 10.4243C16.556 10.4769 16.6693 10.5033 16.7826 10.5033C16.8958 10.5033 17.0091 10.4769 17.0981 10.4243L18.988 9.30976L24.2526 12.4146C24.3422 12.4675 24.4552 12.4937 24.5682 12.4937C24.6942 12.4937 24.8202 12.4611 24.912 12.3964C25.0863 12.2744 25.0736 12.0846 24.8834 11.9725L19.6783 8.90264Z" fill="white"/>
<path d="M7.75639 9.20271H2.19089C1.93291 9.20271 1.72409 9.06847 1.72409 8.90263C1.72409 8.73678 1.93291 8.60254 2.19089 8.60254H7.7567C8.01468 8.60254 8.2235 8.73678 8.2235 8.90263C8.2235 9.06847 8.01437 9.20271 7.75639 9.20271Z" fill="white"/>
<path d="M3.73376 7.10536H0.311496C0.0535113 7.10536 -0.155304 6.97112 -0.155304 6.80527C-0.155304 6.63943 0.0535113 6.50519 0.311496 6.50519H3.73376C3.99175 6.50519 4.20056 6.63943 4.20056 6.80527C4.20056 6.97112 3.99175 7.10536 3.73376 7.10536Z" fill="white"/>
<path d="M3.73345 11.2999H1.2118C0.95381 11.2999 0.744995 11.1654 0.744995 10.9998C0.744995 10.8341 0.95381 10.6997 1.2118 10.6997H3.73376C3.99174 10.6997 4.20056 10.8341 4.20056 10.9998C4.20056 11.1654 3.99143 11.2999 3.73345 11.2999Z" fill="white"/>
</g>
<defs>
<clipPath id="clip0">
<rect width="28" height="18" fill="white"/>
</clipPath>
</defs>
</svg>
