<svg width="28" height="18" viewBox="0 0 28 18" fill="none" xmlns="http://www.w3.org/2000/svg">
<g clip-path="url(#clip0)">
<path d="M5.02321 0.258883C5.04531 0.258883 5.0674 0.259012 5.09012 0.259269C5.13089 0.259655 5.17135 0.260683 5.21087 0.261712C5.26408 0.263126 5.3173 0.264797 5.37051 0.267369C5.41315 0.269426 5.45547 0.272255 5.49779 0.274955C5.54821 0.278297 5.59831 0.281512 5.64935 0.286012C5.68949 0.289483 5.7287 0.293855 5.78161 0.299383L5.79904 0.301312C5.84043 0.305683 5.88181 0.309926 5.92289 0.315197C5.96117 0.320083 5.99883 0.325998 6.03679 0.331655L6.06044 0.335255L6.09903 0.34104C6.12953 0.34554 6.16034 0.35004 6.19053 0.355183C6.22849 0.36174 6.26584 0.369326 6.30318 0.376783L6.33243 0.382569L6.38378 0.392597C6.40619 0.396969 6.42859 0.401083 6.45069 0.405969C6.48959 0.414583 6.52724 0.424355 6.56521 0.433869L6.59602 0.441712L6.65577 0.456497C6.6704 0.460097 6.68564 0.46344 6.70027 0.467555C6.74788 0.480669 6.79363 0.495455 6.83938 0.509983L6.85618 0.515255C6.87703 0.521812 6.89819 0.52824 6.91936 0.53454L6.93772 0.53994C7.01769 0.56694 7.093 0.595097 7.16178 0.623383L9.70086 1.6724C9.76964 1.70081 9.83748 1.73193 9.90034 1.76355L9.91683 1.77281C9.93208 1.78155 9.94733 1.79017 9.9632 1.79878L9.97752 1.80663C10.0121 1.82527 10.0469 1.84365 10.0783 1.8632C10.0883 1.86937 10.0967 1.8758 10.1057 1.8821L10.1406 1.90627L10.1602 1.91951C10.1832 1.93494 10.2066 1.95037 10.2271 1.96644C10.2389 1.97557 10.2492 1.98495 10.2595 1.99421L10.2834 2.01517L10.2977 2.02751C10.3155 2.04281 10.3338 2.05811 10.3497 2.0738C10.3622 2.08601 10.3724 2.09848 10.3833 2.11095L10.3976 2.12728L10.4064 2.13705C10.4204 2.15274 10.4344 2.16843 10.4465 2.18463C10.4589 2.20108 10.4689 2.2178 10.4792 2.23451L10.4866 2.24673C10.4972 2.2637 10.5081 2.28067 10.5171 2.29803C10.5277 2.31847 10.5355 2.33904 10.5433 2.35974C10.5501 2.37748 10.557 2.3951 10.5619 2.4131C10.5682 2.43495 10.5719 2.45681 10.5753 2.47854C10.5778 2.49525 10.5803 2.51184 10.5812 2.52855C10.5825 2.55157 10.5822 2.57458 10.5806 2.59747C10.5794 2.61303 10.5778 2.62858 10.5753 2.64427C10.5716 2.66831 10.566 2.69223 10.5591 2.71563C10.5548 2.7299 10.5498 2.74417 10.5442 2.75857C10.5346 2.78351 10.524 2.8082 10.5109 2.83275C10.5047 2.84433 10.4975 2.85564 10.4882 2.87094C10.4726 2.89653 10.4558 2.92211 10.4365 2.94718C10.4316 2.95374 10.4256 2.96017 10.42 2.96673L10.4082 2.98035C10.3858 3.00658 10.3628 3.03268 10.3363 3.05814L10.3248 3.0683L10.3049 3.08591C10.275 3.11278 10.2445 3.1394 10.2066 3.16781L10.1795 3.18684C10.1344 3.21937 10.0989 3.24328 10.0659 3.2636C10.0553 3.26938 10.045 3.27517 10.0351 3.28095C9.97721 3.31515 9.92835 3.3419 9.88136 3.36504C9.81009 3.40027 9.75439 3.42585 9.70086 3.44797L7.98304 4.15768C7.39923 4.39888 7.39923 4.79115 7.98304 5.03235L15.4083 8.10007C15.6911 8.21694 16.0671 8.28123 16.467 8.28123C16.8669 8.28123 17.2428 8.21694 17.5257 8.10007L19.2435 7.39035C19.297 7.36824 19.3589 7.34523 19.4442 7.31565C19.5005 7.29624 19.5653 7.27593 19.6477 7.25201C19.6611 7.24815 19.6742 7.24417 19.6891 7.23954C19.7389 7.22565 19.7974 7.21087 19.8771 7.19197L19.9263 7.17975C19.9898 7.16535 20.0548 7.15275 20.1205 7.14028L20.1625 7.13218L20.1855 7.12768C20.248 7.11663 20.3115 7.10698 20.3763 7.0976L20.4093 7.09271C20.4242 7.09053 20.4391 7.08821 20.4544 7.08615C20.516 7.07805 20.5779 7.07111 20.6501 7.06353C20.6772 7.0607 20.7043 7.05774 20.7317 7.0553C20.7917 7.0499 20.8518 7.0454 20.9131 7.04141C20.947 7.03923 20.9809 7.03704 21.0145 7.03537C21.0727 7.03241 21.1306 7.03023 21.1904 7.02855C21.2274 7.02753 21.2647 7.02688 21.3015 7.02637C21.3351 7.02598 21.3687 7.02573 21.4026 7.02573C21.4247 7.02573 21.4468 7.02585 21.4692 7.02611C21.5097 7.0265 21.5501 7.02753 21.5899 7.02855C21.6432 7.02997 21.6961 7.03164 21.7496 7.03421C21.7922 7.03627 21.8345 7.0391 21.8769 7.0418C21.9273 7.04514 21.9774 7.04835 22.0281 7.05285C22.0679 7.05633 22.1075 7.0607 22.1604 7.06623L22.1778 7.06803C22.2192 7.0724 22.2606 7.07664 22.3017 7.08191C22.3399 7.0868 22.3776 7.09271 22.4156 7.09837L22.4392 7.10197L22.4778 7.10775C22.5083 7.11225 22.5391 7.11675 22.5696 7.1219C22.6076 7.12845 22.6446 7.13604 22.6819 7.14337L22.7115 7.14915L22.7629 7.15918C22.7853 7.16355 22.8077 7.16767 22.8298 7.17255C22.8687 7.18117 22.9063 7.19094 22.9443 7.20045L22.9751 7.2083L23.0348 7.22308C23.0495 7.22668 23.0647 7.23003 23.0793 7.23414C23.127 7.24725 23.1727 7.26204 23.2188 7.27657L23.2356 7.28184C23.2564 7.2884 23.2776 7.29483 23.2987 7.30113L23.3171 7.30653C23.3971 7.33353 23.4724 7.36168 23.5412 7.38997L26.0802 8.43898C26.149 8.4674 26.2169 8.49851 26.2797 8.53014L26.2962 8.5394C26.3115 8.54814 26.3267 8.55675 26.3426 8.56537L26.3566 8.57308C26.3911 8.59173 26.4263 8.61024 26.4577 8.62978C26.4677 8.63595 26.4761 8.64238 26.4851 8.64868L26.52 8.67285L26.5396 8.6861C26.5626 8.70153 26.5859 8.71695 26.6065 8.73303C26.6183 8.74216 26.6286 8.75154 26.6392 8.7608L26.6631 8.78175L26.6777 8.79423C26.6955 8.80953 26.7135 8.8247 26.7294 8.84025C26.7419 8.85247 26.7521 8.86494 26.763 8.87728L26.7773 8.89361L26.786 8.90364C26.7997 8.91933 26.8141 8.93488 26.8262 8.95095C26.8386 8.96741 26.8486 8.984 26.8589 9.00058L26.8663 9.0128C26.8769 9.0299 26.8878 9.04687 26.8968 9.06435C26.9074 9.0848 26.9152 9.10537 26.923 9.12594C26.9298 9.14368 26.9367 9.1613 26.9416 9.1793C26.9479 9.20115 26.9516 9.22301 26.955 9.24474C26.9575 9.26133 26.96 9.27804 26.9609 9.29475C26.9622 9.31777 26.9619 9.34078 26.9603 9.36354C26.9591 9.3791 26.9575 9.39465 26.955 9.41034C26.9513 9.43438 26.9457 9.4583 26.9388 9.4817C26.9345 9.49597 26.9295 9.51024 26.9239 9.52464C26.9143 9.54958 26.9037 9.57427 26.8906 9.59883C26.8844 9.6104 26.8772 9.62171 26.8679 9.63701C26.8523 9.66273 26.8355 9.68818 26.8162 9.71325C26.8113 9.71981 26.8053 9.72637 26.7997 9.7328L26.7879 9.74643C26.7655 9.77265 26.7425 9.79875 26.716 9.82421L26.7045 9.83437L26.6846 9.85198C26.6547 9.87885 26.6242 9.90547 26.5863 9.93388L26.5592 9.95291C26.5141 9.98544 26.4786 10.0094 26.4456 10.0297C26.435 10.0355 26.4247 10.0412 26.4148 10.047C26.3569 10.0812 26.308 10.108 26.2611 10.131C26.1898 10.1662 26.1341 10.1918 26.0806 10.2139L26.0725 10.2173L26.0644 10.2207C24.8208 10.7606 22.9433 11.058 20.7777 11.058C16.738 11.058 12.0921 10.0501 7.69082 8.21797C3.21825 6.38493 0.778758 4.45031 0.821704 2.77104C0.84411 1.89508 1.5636 1.13458 2.84793 0.629812L2.85633 0.626469L2.86442 0.623126C2.91795 0.601012 2.97988 0.577998 3.06514 0.548426C3.12147 0.529012 3.1862 0.508697 3.26898 0.484783C3.28236 0.480926 3.29543 0.47694 3.31037 0.472312C3.36016 0.458426 3.41867 0.44364 3.49865 0.42474L3.54782 0.412526C3.6113 0.398126 3.67634 0.385526 3.742 0.373055L3.78402 0.364955L3.80704 0.360455C3.8696 0.349397 3.93339 0.339755 3.99781 0.330369L4.0308 0.325483C4.04605 0.323297 4.06098 0.320983 4.07592 0.318926C4.13754 0.310826 4.19947 0.303883 4.27167 0.296297C4.29874 0.293469 4.32582 0.290512 4.3532 0.288069C4.41326 0.282669 4.47332 0.278169 4.53463 0.274183C4.56855 0.271997 4.60247 0.269812 4.63577 0.26814C4.69396 0.265183 4.75185 0.262997 4.8116 0.261326C4.84863 0.260297 4.88597 0.259655 4.9227 0.25914C4.956 0.259012 4.9896 0.258883 5.02321 0.258883ZM5.02321 -0.126831C4.98027 -0.126831 4.93763 -0.126574 4.89469 -0.12606C4.84583 -0.125417 4.79728 -0.124517 4.74874 -0.123231C4.6728 -0.121174 4.59687 -0.118217 4.52125 -0.11436C4.47675 -0.112045 4.43256 -0.109345 4.38837 -0.106517C4.30932 -0.101374 4.2309 -0.0954596 4.15248 -0.0883882C4.11264 -0.0847882 4.07312 -0.0805453 4.0336 -0.0764311C3.95206 -0.0679453 3.87115 -0.0588168 3.79055 -0.0481453C3.75601 -0.0435168 3.72178 -0.0382453 3.68754 -0.0333596C3.60383 -0.0211453 3.52074 -0.00841677 3.43858 0.0061118C3.40964 0.0112547 3.38132 0.0170404 3.35269 0.0225689C3.26711 0.0387689 3.18216 0.0556118 3.09907 0.0743832C3.07666 0.0795261 3.05487 0.0851832 3.03278 0.0905832C2.94502 0.111412 2.85851 0.132883 2.77417 0.156669C2.76048 0.160526 2.74741 0.165026 2.73372 0.168883C2.64253 0.19524 2.55291 0.222626 2.4664 0.252583C2.37677 0.283569 2.28839 0.315583 2.20437 0.350297C-1.31624 1.73437 -1.63117 4.93991 7.03263 8.4926C12.1668 10.6297 17.0019 11.4446 20.7774 11.4446C23.3255 11.4446 25.3906 11.0735 26.7406 10.4875C26.8246 10.4528 26.9024 10.4163 26.9771 10.3793C27.0493 10.3436 27.1153 10.3067 27.1791 10.2693C27.1891 10.2635 27.1999 10.258 27.2096 10.2521C27.2669 10.2174 27.3185 10.1818 27.3686 10.1458C27.3817 10.1364 27.396 10.1273 27.4084 10.1177C27.4539 10.0835 27.4943 10.0487 27.5332 10.0135C27.5466 10.0014 27.5609 9.98955 27.5737 9.97747C27.6089 9.94378 27.6394 9.90958 27.6686 9.87512C27.6807 9.86073 27.6938 9.84645 27.705 9.83193C27.7305 9.79888 27.7526 9.76558 27.7732 9.73203C27.7834 9.71544 27.7934 9.69898 27.8024 9.6824C27.8195 9.65025 27.8335 9.61798 27.846 9.58545C27.8532 9.56694 27.8597 9.54855 27.8653 9.52991C27.8746 9.4988 27.8815 9.46768 27.8865 9.43644C27.8896 9.41613 27.8921 9.39594 27.8933 9.37563C27.8955 9.34567 27.8958 9.31584 27.8942 9.28588C27.893 9.26415 27.8902 9.24243 27.8868 9.2207C27.8824 9.19215 27.8771 9.16361 27.869 9.1352C27.8625 9.11205 27.8538 9.08904 27.8451 9.0659C27.8348 9.0389 27.8242 9.01203 27.8105 8.98528C27.7981 8.96098 27.7828 8.93694 27.7679 8.91277C27.752 8.88744 27.7368 8.86224 27.7178 8.8373C27.6988 8.8121 27.6764 8.78728 27.6546 8.76234C27.6341 8.73894 27.6145 8.71541 27.5911 8.69227C27.565 8.6663 27.5348 8.6411 27.5052 8.61564C27.4803 8.59417 27.4573 8.57257 27.4299 8.55161C27.3954 8.52474 27.3559 8.4989 27.3176 8.47267C27.2899 8.4539 27.2644 8.43461 27.2345 8.41623C27.1878 8.3873 27.1358 8.35953 27.0842 8.33163C27.0571 8.31697 27.0328 8.3018 27.0045 8.28753C26.922 8.24587 26.834 8.20537 26.74 8.16654L24.2009 7.11753C24.1069 7.0787 24.0089 7.04244 23.9081 7.00824C23.8735 6.99654 23.8371 6.98664 23.802 6.97545C23.7341 6.95411 23.6669 6.93251 23.5966 6.91323C23.5521 6.90101 23.506 6.8906 23.4606 6.87915C23.3971 6.86321 23.3342 6.84688 23.2692 6.83261C23.2185 6.82143 23.1662 6.81178 23.1145 6.80163C23.0529 6.78941 22.9913 6.77694 22.9284 6.76614C22.8724 6.7565 22.8151 6.7484 22.7582 6.73978C22.6981 6.73078 22.6387 6.72165 22.5777 6.71381C22.5167 6.70597 22.4551 6.69954 22.3935 6.69298C22.3356 6.68681 22.2777 6.68064 22.2195 6.6755C22.1541 6.66984 22.0888 6.66534 22.0231 6.6611C21.9677 6.6575 21.9123 6.6539 21.8566 6.6512C21.7876 6.64785 21.7185 6.64567 21.6491 6.64387C21.5965 6.64245 21.5442 6.6413 21.4916 6.64078C21.4617 6.64053 21.4319 6.6404 21.4023 6.6404C21.3593 6.6404 21.3167 6.64065 21.2738 6.64117C21.2249 6.64181 21.1764 6.64271 21.1278 6.644C21.0519 6.64605 20.9759 6.64901 20.9003 6.65287C20.8558 6.65518 20.8116 6.65788 20.7671 6.66071C20.6881 6.66585 20.6097 6.67177 20.5312 6.67884C20.4914 6.68244 20.4519 6.68668 20.4124 6.6908C20.3308 6.69928 20.2499 6.70841 20.1693 6.71908C20.1348 6.72371 20.1005 6.72898 20.0663 6.73387C19.9826 6.74608 19.8995 6.75881 19.8173 6.77334C19.7884 6.77848 19.7601 6.78427 19.7315 6.7898C19.6459 6.806 19.5609 6.82284 19.4778 6.84161C19.4554 6.84675 19.4336 6.85241 19.4115 6.85781C19.3238 6.87864 19.2373 6.90011 19.1529 6.9239C19.1392 6.92775 19.1262 6.93225 19.1125 6.93611C19.0213 6.96247 18.9317 6.98985 18.8452 7.01981C18.7555 7.0508 18.6672 7.08281 18.5831 7.11753L16.8653 7.82724C16.7551 7.87275 16.6111 7.89538 16.467 7.89538C16.3229 7.89538 16.1785 7.87263 16.0686 7.82724L8.6434 4.75927C8.42338 4.66837 8.42338 4.5209 8.6434 4.43L10.3612 3.72028C10.4452 3.68557 10.5231 3.64905 10.5981 3.61203C10.6702 3.57641 10.7362 3.53951 10.8 3.5021C10.81 3.49631 10.8209 3.49078 10.8305 3.48487C10.8878 3.45015 10.9394 3.41454 10.9895 3.37854C11.0026 3.36915 11.0169 3.36003 11.0294 3.35051C11.0748 3.31631 11.1153 3.28147 11.1542 3.24624C11.1675 3.23415 11.1819 3.22233 11.1946 3.21024C11.2298 3.17655 11.2603 3.14235 11.2895 3.1079C11.3017 3.0935 11.3147 3.07923 11.3259 3.0647C11.3515 3.03165 11.3736 2.99835 11.3941 2.9648C11.4044 2.94821 11.4143 2.93175 11.4234 2.91517C11.4405 2.88303 11.4545 2.85075 11.4669 2.81823C11.4741 2.79971 11.4806 2.78133 11.4862 2.76268C11.4956 2.73157 11.5024 2.70045 11.5074 2.66921C11.5108 2.6489 11.513 2.62871 11.5142 2.6084C11.5164 2.57844 11.5167 2.54861 11.5152 2.51865C11.5139 2.49693 11.5111 2.4752 11.5077 2.45347C11.5033 2.42493 11.498 2.39638 11.4899 2.36797C11.4834 2.34483 11.4747 2.32181 11.466 2.29867C11.4557 2.27167 11.4448 2.2448 11.4314 2.21805C11.419 2.19375 11.4037 2.16971 11.3888 2.14554C11.3729 2.12021 11.3577 2.09501 11.3387 2.07007C11.3197 2.04487 11.2973 2.02005 11.2755 1.99511C11.255 1.97171 11.2354 1.94818 11.212 1.92504C11.1859 1.89907 11.1557 1.87387 11.1262 1.84841C11.1013 1.82694 11.0782 1.80534 11.0508 1.78438C11.0163 1.75751 10.9768 1.73167 10.9385 1.70544C10.9108 1.68667 10.8853 1.66738 10.8554 1.649C10.8087 1.62007 10.7568 1.5923 10.7051 1.5644C10.678 1.54974 10.6538 1.53457 10.6254 1.5203C10.543 1.47864 10.4549 1.43814 10.3609 1.39931L7.82184 0.350297C7.72785 0.311469 7.62982 0.275212 7.529 0.241012C7.49445 0.229312 7.45804 0.219412 7.42257 0.208226C7.35472 0.186883 7.2875 0.165283 7.21717 0.145997C7.17267 0.133783 7.12662 0.123369 7.08118 0.111926C7.01769 0.0959832 6.95483 0.0796546 6.88979 0.0653832C6.83907 0.0541975 6.78678 0.0445547 6.73513 0.0343975C6.67351 0.0221832 6.61189 0.0097118 6.54903 -0.0010882C6.49301 -0.0107311 6.43575 -0.0188311 6.3788 -0.0274453C6.31874 -0.0364453 6.2593 -0.0455739 6.19831 -0.0534168C6.13731 -0.0612596 6.07569 -0.0676882 6.01407 -0.0742453C5.95619 -0.0804168 5.89831 -0.0865882 5.84011 -0.0917311C5.77476 -0.0973882 5.70941 -0.101888 5.64375 -0.106131C5.58835 -0.109731 5.53296 -0.113331 5.47725 -0.116031C5.40817 -0.119374 5.33908 -0.12156 5.26968 -0.12336C5.21709 -0.124774 5.16481 -0.125931 5.11222 -0.126445C5.08296 -0.126702 5.05309 -0.126831 5.02321 -0.126831Z" fill="white"/>
</g>
<defs>
<clipPath id="clip0">
<rect width="28" height="18" fill="white"/>
</clipPath>
</defs>
</svg>
